<?plantuml 1.2026.2?><svg xmlns="http://www.w3.org/2000/svg" xmlns:xlink="http://www.w3.org/1999/xlink" contentStyleType="text/css" data-diagram-type="DESCRIPTION" height="726px" preserveAspectRatio="none" style="width:1462px;height:726px;background:#FFFFFF;" version="1.1" viewBox="0 0 1462 726" width="1462px" zoomAndPan="magnify"><defs/><g><!--cluster Configuration (experiment conditions vs identity)--><g class="cluster" data-qualified-name="Configuration .experiment conditions vs identity." data-source-line="7" id="ent0002"><path d="M343.64,6 L736.7494,6 A3.75,3.75 0 0 1 739.2494,8.5 L746.2494,28.2969 L1135.64,28.2969 A2.5,2.5 0 0 1 1138.14,30.7969 L1138.14,107.09 A2.5,2.5 0 0 1 1135.64,109.59 L343.64,109.59 A2.5,2.5 0 0 1 341.14,107.09 L341.14,8.5 A2.5,2.5 0 0 1 343.64,6" fill="none" style="stroke:#000000;stroke-width:1.5;"/><line style="stroke:#000000;stroke-width:1.5;" x1="341.14" x2="746.2494" y1="28.2969" y2="28.2969"/><text fill="#000000" font-family="sans-serif" font-size="14" font-weight="bold" lengthAdjust="spacing" textLength="392.1094" x="345.14" y="20.9951">Configuration (experiment conditions vs identity)</text></g><!--cluster Provenance (errors leave evidence ? F3)--><g class="cluster" data-qualified-name="Provenance .errors leave evidence . F3." data-source-line="49" id="ent0034"><path d="M55.64,517.31 L380.9095,517.31 A3.75,3.75 0 0 1 383.4095,519.81 L390.4095,539.6069 L985.64,539.6069 A2.5,2.5 0 0 1 988.14,542.1069 L988.14,634.7 A2.5,2.5 0 0 1 985.64,637.2 L55.64,637.2 A2.5,2.5 0 0 1 53.14,634.7 L53.14,519.81 A2.5,2.5 0 0 1 55.64,517.31" fill="none" style="stroke:#000000;stroke-width:1.5;"/><line style="stroke:#000000;stroke-width:1.5;" x1="53.14" x2="390.4095" y1="539.6069" y2="539.6069"/><text fill="#000000" font-family="sans-serif" font-size="14" font-weight="bold" lengthAdjust="spacing" textLength="324.2695" x="57.14" y="532.3051">Provenance (errors leave evidence &#8212; F3)</text></g><!--entity CAMP--><g class="entity" data-qualified-name="Configuration .experiment conditions vs identity..CAMP" data-source-line="8" id="ent0003"><rect fill="#F1F1F1" height="52.5938" rx="2.5" ry="2.5" style="stroke:#181818;stroke-width:0.5;" width="165.3867" x="357.45" y="41"/><text fill="#000000" font-family="sans-serif" font-size="14" lengthAdjust="spacing" textLength="107.8711" x="367.45" y="63.9951">campaign.yaml</text><text fill="#000000" font-family="sans-serif" font-size="14" lengthAdjust="spacing" textLength="145.3867" x="367.45" y="80.292">conditions + params</text></g><!--entity FLOW--><g class="entity" data-qualified-name="Configuration .experiment conditions vs identity..FLOW" data-source-line="9" id="ent0004"><rect fill="#F1F1F1" height="52.5938" rx="2.5" ry="2.5" style="stroke:#181818;stroke-width:0.5;" width="172.4004" x="557.94" y="41"/><text fill="#000000" font-family="sans-serif" font-size="14" lengthAdjust="spacing" textLength="67.6758" x="567.94" y="63.9951">flow.yaml</text><text fill="#000000" font-family="sans-serif" font-size="14" lengthAdjust="spacing" textLength="152.4004" x="567.94" y="80.292">phases / tasks / gates</text></g><!--entity CAST--><g class="entity" data-qualified-name="Configuration .experiment conditions vs identity..CAST" data-source-line="10" id="ent0005"><rect fill="#F1F1F1" height="52.5938" rx="2.5" ry="2.5" style="stroke:#181818;stroke-width:0.5;" width="200.5029" x="921.89" y="41"/><text fill="#000000" font-family="sans-serif" font-size="14" lengthAdjust="spacing" textLength="180.5029" x="931.89" y="63.9951">roles.yaml + casts/*.yaml</text><text fill="#000000" font-family="sans-serif" font-size="14" lengthAdjust="spacing" textLength="145.5508" x="931.89" y="80.292">contracts + bindings</text></g><!--entity PROF--><g class="entity" data-qualified-name="Configuration .experiment conditions vs identity..PROF" data-source-line="11" id="ent0006"><rect fill="#F1F1F1" height="52.5938" rx="2.5" ry="2.5" style="stroke:#181818;stroke-width:0.5;" width="121.459" x="765.41" y="41"/><text fill="#000000" font-family="sans-serif" font-size="14" lengthAdjust="spacing" textLength="90.665" x="775.41" y="63.9951">profiles.yaml</text><text fill="#000000" font-family="sans-serif" font-size="14" lengthAdjust="spacing" textLength="101.459" x="775.41" y="80.292">model identity</text></g><!--entity LOG--><g class="entity" data-qualified-name="Provenance .errors leave evidence . F3..LOG" data-source-line="50" id="ent0035"><rect fill="#F1F1F1" height="68.8906" rx="2.5" ry="2.5" style="stroke:#181818;stroke-width:0.5;" width="173.6582" x="798.31" y="552.31"/><text fill="#000000" font-family="sans-serif" font-size="14" lengthAdjust="spacing" textLength="49.2939" x="808.31" y="575.3051">run.log</text><text fill="#000000" font-family="sans-serif" font-size="14" lengthAdjust="spacing" textLength="153.6582" x="808.31" y="591.602">per-turn calls, results,</text><text fill="#000000" font-family="sans-serif" font-size="14" lengthAdjust="spacing" textLength="108.5068" x="808.31" y="607.8989">manifest deltas</text></g><!--entity TJ--><g class="entity" data-qualified-name="Provenance .errors leave evidence . F3..TJ" data-source-line="51" id="ent0036"><rect fill="#F1F1F1" height="68.8906" rx="2.5" ry="2.5" style="stroke:#181818;stroke-width:0.5;" width="284.4756" x="478.9" y="552.31"/><text fill="#000000" font-family="sans-serif" font-size="14" lengthAdjust="spacing" textLength="73.7256" x="488.9" y="575.3051">tasks.jsonl</text><text fill="#000000" font-family="sans-serif" font-size="14" lengthAdjust="spacing" textLength="130.9561" x="488.9" y="591.602">latest-record-wins;</text><text fill="#000000" font-family="sans-serif" font-size="14" lengthAdjust="spacing" textLength="219.9463" x="488.9" y="607.8989">mechanical re-evals persisted (</text><text fill="#000000" font-family="sans-serif" font-size="14" font-weight="bold" lengthAdjust="spacing" textLength="39.0674" x="708.8463" y="607.8989">F17b</text><text fill="#000000" font-family="sans-serif" font-size="14" lengthAdjust="spacing" textLength="5.4619" x="747.9137" y="607.8989">)</text></g><!--entity PJ--><g class="entity" data-qualified-name="Provenance .errors leave evidence . F3..PJ" data-source-line="52" id="ent0037"><rect fill="#F1F1F1" height="52.5938" rx="2.5" ry="2.5" style="stroke:#181818;stroke-width:0.5;" width="228.5508" x="214.86" y="560.46"/><text fill="#000000" font-family="sans-serif" font-size="14" lengthAdjust="spacing" textLength="86.502" x="224.86" y="583.4551">phases.jsonl</text><text fill="#000000" font-family="sans-serif" font-size="14" lengthAdjust="spacing" textLength="208.5508" x="224.86" y="599.752">gate records, mechanical flag</text></g><!--entity WJ--><g class="entity" data-qualified-name="Provenance .errors leave evidence . F3..WJ" data-source-line="53" id="ent0038"><rect fill="#F1F1F1" height="36.2969" rx="2.5" ry="2.5" style="stroke:#181818;stroke-width:0.5;" width="110.8291" x="68.73" y="568.61"/><text fill="#000000" font-family="sans-serif" font-size="14" lengthAdjust="spacing" textLength="90.8291" x="78.73" y="591.6051">waivers.jsonl</text></g><g class="entity" data-qualified-name="GMN7" data-source-line="14" id="ent0008"><path d="M6,171.73 L6,211.9956 A0,0 0 0 0 6,211.9956 L294.2808,211.9956 A0,0 0 0 0 294.2808,211.9956 L294.2808,181.73 L284.2808,171.73 L200.56,171.73 L379.35,93.99 L192.56,171.73 L6,171.73 A0,0 0 0 0 6,171.73" fill="#FEFFDD" style="stroke:#181818;stroke-width:0.5;"/><path d="M284.2808,171.73 L284.2808,181.73 L294.2808,181.73 L284.2808,171.73" fill="#FEFFDD" style="stroke:#181818;stroke-width:0.5;"/><text fill="#000000" font-family="sans-serif" font-size="13" lengthAdjust="spacing" textLength="267.2808" x="12" y="188.7969">params precedence: profile &lt;- campaign</text><text fill="#000000" font-family="sans-serif" font-size="13" lengthAdjust="spacing" textLength="200.8145" x="12" y="203.9297">override, effective set logged (</text><text fill="#000000" font-family="sans-serif" font-size="13" font-weight="bold" lengthAdjust="spacing" textLength="26.9712" x="212.8145" y="203.9297">F19</text><text fill="#000000" font-family="sans-serif" font-size="13" lengthAdjust="spacing" textLength="5.0718" x="239.7856" y="203.9297">)</text></g><g class="entity" data-qualified-name="GMN10" data-source-line="18" id="ent0011"><path d="M562.85,164.16 L562.85,219.5584 A0,0 0 0 0 562.85,219.5584 L773.4228,219.5584 A0,0 0 0 0 773.4228,219.5584 L773.4228,174.16 L763.4228,164.16 L666.87,164.16 L649.17,93.99 L658.87,164.16 L562.85,164.16 A0,0 0 0 0 562.85,164.16" fill="#FEFFDD" style="stroke:#181818;stroke-width:0.5;"/><path d="M763.4228,164.16 L763.4228,174.16 L773.4228,174.16 L763.4228,164.16" fill="#FEFFDD" style="stroke:#181818;stroke-width:0.5;"/><text fill="#000000" font-family="sans-serif" font-size="13" lengthAdjust="spacing" textLength="169.5459" x="568.85" y="181.2269">load-time lints: role-scope</text><text fill="#000000" font-family="sans-serif" font-size="13" lengthAdjust="spacing" textLength="72.0078" x="568.85" y="196.3597">feasibility (</text><text fill="#000000" font-family="sans-serif" font-size="13" font-weight="bold" lengthAdjust="spacing" textLength="17.9258" x="640.8578" y="196.3597">F2</text><text fill="#000000" font-family="sans-serif" font-size="13" lengthAdjust="spacing" textLength="99.6392" x="658.7836" y="196.3597">), spec-channel</text><text fill="#000000" font-family="sans-serif" font-size="13" lengthAdjust="spacing" textLength="114.042" x="568.85" y="211.4925">reference check (</text><text fill="#000000" font-family="sans-serif" font-size="13" font-weight="bold" lengthAdjust="spacing" textLength="31.605" x="682.892" y="211.4925">F6-L</text><text fill="#000000" font-family="sans-serif" font-size="13" lengthAdjust="spacing" textLength="5.0718" x="714.497" y="211.4925">)</text></g><g class="entity" data-qualified-name="GMN13" data-source-line="23" id="ent0014"><path d="M879.56,156.59 L879.56,227.1213 A0,0 0 0 0 879.56,227.1213 L1166.7172,227.1213 A0,0 0 0 0 1166.7172,227.1213 L1166.7172,166.59 L1156.7172,156.59 L1026.86,156.59 L1022.35,93.99 L1018.86,156.59 L879.56,156.59 A0,0 0 0 0 879.56,156.59" fill="#FEFFDD" style="stroke:#181818;stroke-width:0.5;"/><path d="M1156.7172,156.59 L1156.7172,166.59 L1166.7172,166.59 L1156.7172,156.59" fill="#FEFFDD" style="stroke:#181818;stroke-width:0.5;"/><text fill="#000000" font-family="sans-serif" font-size="13" lengthAdjust="spacing" textLength="240.1191" x="885.56" y="173.6569">validate_cast: profile resolves, VRAM</text><text fill="#000000" font-family="sans-serif" font-size="13" lengthAdjust="spacing" textLength="266.1572" x="885.56" y="188.7897">from manifest store, evidence-or-waiver,</text><text fill="#000000" font-family="sans-serif" font-size="13" lengthAdjust="spacing" textLength="138.5947" x="885.56" y="203.9225">human always valid (</text><text fill="#000000" font-family="sans-serif" font-size="13" font-weight="bold" lengthAdjust="spacing" textLength="26.9712" x="1024.1547" y="203.9225">F12</text><text fill="#000000" font-family="sans-serif" font-size="13" lengthAdjust="spacing" textLength="85.3062" x="1051.1259" y="203.9225">: tool surface</text><text fill="#000000" font-family="sans-serif" font-size="13" lengthAdjust="spacing" textLength="178.8008" x="885.56" y="219.0553">is part of the evidence key)</text></g><!--entity RUNNER--><g class="entity" data-qualified-name="RUNNER" data-source-line="29" id="ent0016"><rect fill="#F1F1F1" height="68.8906" rx="2.5" ry="2.5" style="stroke:#181818;stroke-width:0.5;" width="198.5205" x="328.88" y="157.41"/><text fill="#000000" font-family="sans-serif" font-size="14" lengthAdjust="spacing" textLength="103.2568" x="338.88" y="180.4051">run_phased.py</text><text fill="#000000" font-family="sans-serif" font-size="14" lengthAdjust="spacing" textLength="178.5205" x="338.88" y="196.702">resume-from-provenance</text><text fill="#000000" font-family="sans-serif" font-size="14" lengthAdjust="spacing" text-decoration="line-through" textLength="60.3203" x="338.88" y="212.9989">phase0 /</text><text fill="#000000" font-family="sans-serif" font-size="14" lengthAdjust="spacing" textLength="72.3926" x="403.6505" y="212.9989">rerun-task</text></g><!--entity ORCH--><g class="entity" data-qualified-name="ORCH" data-source-line="30" id="ent0017"><rect fill="#F1F1F1" height="52.5938" rx="2.5" ry="2.5" style="stroke:#181818;stroke-width:0.5;" width="155.7344" x="769.27" y="304.13"/><text fill="#000000" font-family="sans-serif" font-size="14" lengthAdjust="spacing" textLength="88.8877" x="779.27" y="327.1251">Orchestrator</text><text fill="#000000" font-family="sans-serif" font-size="14" lengthAdjust="spacing" textLength="135.7344" x="779.27" y="343.422">cast-resolved seats</text></g><!--entity RT--><g class="entity" data-qualified-name="RT" data-source-line="31" id="ent0018"><rect fill="#F1F1F1" height="52.5938" rx="2.5" ry="2.5" style="stroke:#181818;stroke-width:0.5;" width="166.7949" x="826.74" y="417.72"/><text fill="#000000" font-family="sans-serif" font-size="14" lengthAdjust="spacing" textLength="100.543" x="836.74" y="440.7151">AgentRuntime</text><text fill="#000000" font-family="sans-serif" font-size="14" lengthAdjust="spacing" textLength="146.7949" x="836.74" y="457.012">turn loop + S1/S2/S7</text></g><!--entity AD--><g class="entity" data-qualified-name="AD" data-source-line="32" id="ent0019"><rect fill="#F1F1F1" height="52.5938" rx="2.5" ry="2.5" style="stroke:#181818;stroke-width:0.5;" width="220.0059" x="1236.14" y="560.46"/><text fill="#000000" font-family="sans-serif" font-size="14" lengthAdjust="spacing" textLength="86.9189" x="1246.14" y="583.4551">LLM adapter</text><text fill="#000000" font-family="sans-serif" font-size="14" lengthAdjust="spacing" textLength="200.0059" x="1246.14" y="599.752">v7 byte-transparent channel</text></g><!--entity OL--><g class="entity" data-qualified-name="OL" data-source-line="33" id="ent0020"><rect fill="#F1F1F1" height="36.2969" rx="2.5" ry="2.5" style="stroke:#181818;stroke-width:0.5;" width="131.2002" x="1280.54" y="684.2"/><text fill="#000000" font-family="sans-serif" font-size="14" lengthAdjust="spacing" textLength="111.2002" x="1290.54" y="707.1951">Ollama daemon</text></g><!--entity TOOLS--><g class="entity" data-qualified-name="TOOLS" data-source-line="34" id="ent0021"><rect fill="#F1F1F1" height="36.2969" rx="2.5" ry="2.5" style="stroke:#181818;stroke-width:0.5;" width="194.8906" x="1006.7" y="568.61"/><text fill="#000000" font-family="sans-serif" font-size="14" lengthAdjust="spacing" textLength="174.8906" x="1016.7" y="591.6051">inner tools -&gt; workspace</text></g><!--entity HAND--><g class="entity" data-qualified-name="HAND" data-source-line="35" id="ent0022"><rect fill="#F1F1F1" height="52.5938" rx="2.5" ry="2.5" style="stroke:#181818;stroke-width:0.5;" width="291.209" x="410.54" y="304.13"/><text fill="#000000" font-family="sans-serif" font-size="14" lengthAdjust="spacing" textLength="215.5098" x="420.54" y="327.1251">handoff extractor + assembler</text><text fill="#000000" font-family="sans-serif" font-size="14" lengthAdjust="spacing" textLength="271.209" x="420.54" y="343.422">FACT mechanical, PROSE by micro-ask</text></g><!--link CAMP to RUNNER--><g class="link" data-entity-1="ent0003" data-entity-2="ent0016" data-link-type="dependency" data-source-line="37" id="lnk23"><path d="M437.62,93.99 C435.82,112.38 433.9634,131.3484 432.0134,151.3084" fill="none" id="CAMP-to-RUNNER" style="stroke:#181818;stroke-width:1;"/><polygon fill="#181818" points="431.43,157.28,436.2861,148.7116,431.9162,152.3037,428.324,147.9337,431.43,157.28" style="stroke:#181818;stroke-width:1;"/></g><!--link FLOW to RUNNER--><g class="link" data-entity-1="ent0004" data-entity-2="ent0016" data-link-type="dependency" data-source-line="38" id="lnk24"><path d="M598.86,93.99 C566.57,112.31 528.0589,134.1698 492.9389,154.0898" fill="none" id="FLOW-to-RUNNER" style="stroke:#181818;stroke-width:1;"/><polygon fill="#181818" points="487.72,157.05,497.5219,156.089,492.0691,154.5832,493.575,149.1304,487.72,157.05" style="stroke:#181818;stroke-width:1;"/></g><!--link CAST to ORCH--><g class="link" data-entity-1="ent0005" data-entity-2="ent0017" data-link-type="dependency" data-source-line="39" id="lnk25"><path d="M1106.81,94.03 C1136.63,107.63 1166.97,127.68 1184.14,156.59 C1200.15,183.55 1202.81,201.94 1184.14,227.13 C1153.18,268.87 1020.6318,299.1989 931.1018,315.5989" fill="none" id="CAST-to-ORCH" style="stroke:#181818;stroke-width:1;"/><polygon fill="#181818" points="925.2,316.68,934.7734,318.9929,930.1182,315.7791,933.332,311.1238,925.2,316.68" style="stroke:#181818;stroke-width:1;"/></g><!--link PROF to ORCH--><g class="link" data-entity-1="ent0006" data-entity-2="ent0017" data-link-type="dependency" data-source-line="40" id="lnk26"><path d="M828.19,93.81 C832.21,143.73 840.5792,247.8193 844.5992,297.8293" fill="none" id="PROF-to-ORCH" style="stroke:#181818;stroke-width:1;"/><polygon fill="#181818" points="845.08,303.81,848.346,294.5184,844.6794,298.8261,840.3717,295.1594,845.08,303.81" style="stroke:#181818;stroke-width:1;"/></g><!--link RUNNER to ORCH--><g class="link" data-entity-1="ent0016" data-entity-2="ent0017" data-link-type="dependency" data-source-line="41" id="lnk27"><path d="M527.7,225.31 C601.52,249.37 695.0454,279.8506 763.2154,302.0706" fill="none" id="RUNNER-to-ORCH" style="stroke:#181818;stroke-width:1;"/><polygon fill="#181818" points="768.92,303.93,761.6027,297.3378,764.1662,302.3805,759.1235,304.9439,768.92,303.93" style="stroke:#181818;stroke-width:1;"/></g><!--link ORCH to RT--><g class="link" data-entity-1="ent0017" data-entity-2="ent0018" data-link-type="dependency" data-source-line="42" id="lnk28"><path d="M861.59,357.02 C871.84,375.17 882.5702,394.1852 892.8002,412.3052" fill="none" id="ORCH-to-RT" style="stroke:#181818;stroke-width:1;"/><polygon fill="#181818" points="895.75,417.53,894.8086,407.7262,893.2919,413.176,887.8421,411.6593,895.75,417.53" style="stroke:#181818;stroke-width:1;"/></g><!--link RT to AD--><g class="link" data-entity-1="ent0018" data-entity-2="ent0019" data-link-type="dependency" data-source-line="43" id="lnk29"><path d="M993.97,454.68 C1057.4,463.84 1145.8,480.57 1219.14,509.31 C1252.09,522.22 1281.3221,539.9408 1305.9121,556.7008" fill="none" id="RT-to-AD" style="stroke:#181818;stroke-width:1;"/><polygon fill="#181818" points="1310.87,560.08,1305.6859,551.7059,1306.7384,557.264,1301.1803,558.3165,1310.87,560.08" style="stroke:#181818;stroke-width:1;"/></g><!--link AD to OL--><g class="link" data-entity-1="ent0019" data-entity-2="ent0020" data-link-type="dependency" data-source-line="44" id="lnk30"><path d="M1346.14,613.53 C1346.14,635 1346.14,659.01 1346.14,677.8" fill="none" id="AD-to-OL" style="stroke:#181818;stroke-width:1;"/><polygon fill="#181818" points="1346.14,683.8,1350.14,674.8,1346.14,678.8,1342.14,674.8,1346.14,683.8" style="stroke:#181818;stroke-width:1;"/></g><!--link RT to TOOLS--><g class="link" data-entity-1="ent0018" data-entity-2="ent0021" data-link-type="dependency" data-source-line="45" id="lnk31"><path d="M945.27,470.5 C984.25,498.78 1041.2535,540.1366 1075.1335,564.7166" fill="none" id="RT-to-TOOLS" style="stroke:#181818;stroke-width:1;"/><polygon fill="#181818" points="1079.99,568.24,1075.0542,559.7172,1075.9429,565.3038,1070.3563,566.1926,1079.99,568.24" style="stroke:#181818;stroke-width:1;"/></g><!--link RUNNER to HAND--><g class="link" data-entity-1="ent0016" data-entity-2="ent0022" data-link-type="dependency" data-source-line="46" id="lnk32"><path d="M459.78,226.62 C482.14,250.47 507.5471,277.5721 527.9871,299.3821" fill="none" id="RUNNER-to-HAND" style="stroke:#181818;stroke-width:1;"/><polygon fill="#181818" points="532.09,303.76,528.8542,294.4579,528.6709,300.1117,523.017,299.9284,532.09,303.76" style="stroke:#181818;stroke-width:1;"/><text fill="#000000" font-family="sans-serif" font-size="13" lengthAdjust="spacing" textLength="33.3062" x="504.61" y="270.1969">at P9</text></g><!--link HAND to TOOLS--><g class="link" data-entity-1="ent0022" data-entity-2="ent0021" data-link-type="dependency" data-source-line="47" id="lnk33"><path d="M570.66,356.99 C590.57,389.39 629.58,444.15 679.14,470.31 C801.55,534.94 858.31,461.31 988.14,509.31 C1025.01,522.94 1057.319,546.4072 1079.299,564.4172" fill="none" id="HAND-to-TOOLS" style="stroke:#181818;stroke-width:1;"/><polygon fill="#181818" points="1083.94,568.22,1079.5137,559.4219,1080.0725,565.051,1074.4433,565.6099,1083.94,568.22" style="stroke:#181818;stroke-width:1;"/><text fill="#000000" font-family="sans-serif" font-size="13" lengthAdjust="spacing" textLength="128.959" x="680.14" y="448.5869">PROJECT_STATE.md</text></g><!--link RT to LOG--><g class="link" data-entity-1="ent0018" data-entity-2="ent0035" data-link-type="dependency" data-source-line="55" id="lnk39"><path d="M905.61,470.5 C901.56,493.32 896.6394,521.0225 892.1894,546.0725" fill="none" id="RT-to-LOG" style="stroke:#181818;stroke-width:1;"/><polygon fill="#181818" points="891.14,551.98,896.6525,543.8184,892.0145,547.0571,888.7758,542.4191,891.14,551.98" style="stroke:#181818;stroke-width:1;"/></g><!--link RT to TJ--><g class="link" data-entity-1="ent0018" data-entity-2="ent0036" data-link-type="dependency" data-source-line="56" id="lnk40"><path d="M857.47,470.67 C810.66,493.46 747.3044,524.3232 696.0044,549.3032" fill="none" id="RT-to-TJ" style="stroke:#181818;stroke-width:1;"/><polygon fill="#181818" points="690.61,551.93,700.4529,551.5861,695.1054,549.741,696.9505,544.3935,690.61,551.93" style="stroke:#181818;stroke-width:1;"/></g><!--link RUNNER to PJ--><g class="link" data-entity-1="ent0016" data-entity-2="ent0037" data-link-type="dependency" data-source-line="57" id="lnk41"><path d="M416.7,226.74 C409.48,248.67 400.22,277.93 393.14,304.13 C367.81,397.78 345.3986,504.8789 335.3786,554.4589" fill="none" id="RUNNER-to-PJ" style="stroke:#181818;stroke-width:1;"/><polygon fill="#181818" points="334.19,560.34,339.8936,552.3107,335.1805,555.4391,332.0521,550.726,334.19,560.34" style="stroke:#181818;stroke-width:1;"/></g><!--link RUNNER to WJ--><g class="link" data-entity-1="ent0016" data-entity-2="ent0038" data-link-type="dependency" data-source-line="58" id="lnk42"><path d="M401.96,226.7 C339.6,307.3 187.6811,503.6241 141.1611,563.7641" fill="none" id="RUNNER-to-WJ" style="stroke:#181818;stroke-width:1;"/><polygon fill="#181818" points="137.49,568.51,146.1605,563.8386,140.5492,564.5551,139.8327,558.9438,137.49,568.51" style="stroke:#181818;stroke-width:1;"/></g><?plantuml-src VLLTRo8t57sVNt6rBxjBCJHRjT7IQYL4aguG2H7Gve5KqSLpPt3ns2FR0ukgbVP7z1Vsb_JQmoIa3tq1sPpxTUxnuIrSAImTLd0n_17--VOt-ACFL46E0Gjj3oEGrXIgR1m6PGs8Jq1VI3RTeNPsJmQDf47s5fQsSPB05X1S4xOZyDAfElYXQynJlKLF-Q0-zi4xESJIEXmMcYWCU-TNjKOpx0sopE-KgJ4svxUOsuCo9HIeFPtz8crLMqCcBCDH4pYI0KsfASjgb3ii2TvCNWtmZhxKv5J58N6qNCLR3tiFAkSx5Oxlty1V6S1QObMZAitWY9L-D6VWxo0Lzty0UfYCR-yZFB9rWgP9FGmXeD_5xn83jUYRsVmXeftLv1ESiqdqp57lfL1mA4Eiir5Sr9HTfUKgnZBdXUh27qrbSzBFtIVa_M9-attDZ0q46nk2hU9EJfsslVFcI187IHh1AIFy8g2Rce6yMUSuRn-eA9XOjIVm543RigGStlLwDnSVUxtt6PaSOgt_5ZmDgotc8Z3be9K9VWHnUE6bhOb_BGYzsYZDlQUK7pWZow4cAUGMZI7D84S5kTWho2t9NGB-96R_L_p4rXwrOZ7JKoJvPL97tkez-JxylXZVnZOSXrLeL44-W0_MnRdtAZ4ah1C7vFbTdw7RXd60-e17t-PlkU3EHn2irU0RLw2CqoaV-GxfIMpfEI7iw7ZMUhP-zK0U3RVNL2HYK-BbYJqQ8HBeUzQK48uuIaIDfQKlVhkxkrvawxbZZZnBY6TWDV7OuZHjpkl3q8fflfXypjRZabMpQ4pSpgC9ZJEyBLkpyfONm-M7uVAoJRtArhFPBM2ETI3Ekh-4pJ6Gu2h6yu3fDRNRIW7ZA-v3QwoGdOGgQzgQisoj6ECIIpxwny6w7IUGb02h-NospDQSABT5mKwJ7e9rt0zwJzL6n-8tuyaAAehrb4JTZt9VNdD3K2dfhEW8-Jo-kygog7ecwrF7JnJb-Jdg99qJ8_7bl9nQoCivVhIngspHHl6auwiMCUlksZ7EWcCdC08CSFynIuTd65zppUdrPFMqN8rNruCgF_Ek--VTit4vPvq7JRW_4rBqx9iVEizYGGpuUR85aHDfdKoGPfL7GUdW-smNdSRPDLWxYQdP_DSOdUngyAUtXcr5Hy-Aqf7MvOBDr__CmS-iSqP1B7xMDpcl-4_Zz0ekD_mgssrEaribC-ooHYU4DYTtTPQkq5YstfMYsjTs2alt3rDsj1F1iT-Ew-avqVUlJW_JVm40?></g></svg>