<?plantuml 1.2026.2?><svg xmlns="http://www.w3.org/2000/svg" xmlns:xlink="http://www.w3.org/1999/xlink" contentStyleType="text/css" data-diagram-type="DESCRIPTION" height="1180px" preserveAspectRatio="none" style="width:2169px;height:1180px;background:#FFFFFF;" version="1.1" viewBox="0 0 2169 1180" width="2169px" zoomAndPan="magnify"><title>Agora Architecture Overview</title><defs/><g><g class="title" data-source-line="1"><text fill="#000000" font-family="Helvetica" font-size="14" font-weight="bold" lengthAdjust="spacing" textLength="228.7031" x="963.3934" y="22.9951">Agora Architecture Overview</text></g><!--cluster RunnerPkg--><g class="cluster" data-qualified-name="RunnerPkg" data-source-line="10" id="ent0002"><path d="M693.99,43.2969 L801.9929,43.2969 A3.75,3.75 0 0 1 804.4929,45.7969 L811.4929,65.5938 L884.99,65.5938 A2.5,2.5 0 0 1 887.49,68.0938 L887.49,138.0869 A2.5,2.5 0 0 1 884.99,140.5869 L693.99,140.5869 A2.5,2.5 0 0 1 691.49,138.0869 L691.49,45.7969 A2.5,2.5 0 0 1 693.99,43.2969" fill="#F0F4F8" style="stroke:#6A8AAA;stroke-width:1.5;"/><line style="stroke:#6A8AAA;stroke-width:1.5;" x1="691.49" x2="811.4929" y1="65.5938" y2="65.5938"/><text fill="#000000" font-family="Helvetica" font-size="14" font-weight="bold" lengthAdjust="spacing" textLength="107.0029" x="695.49" y="58.292">Runner script</text></g><!--cluster OrchPkg--><g class="cluster" data-qualified-name="OrchPkg" data-source-line="14" id="ent0004"><path d="M465.99,173.5869 L576.0095,173.5869 A3.75,3.75 0 0 1 578.5095,176.0869 L585.5095,195.8838 L988.99,195.8838 A2.5,2.5 0 0 1 991.49,198.3838 L991.49,503.9769 A2.5,2.5 0 0 1 988.99,506.4769 L465.99,506.4769 A2.5,2.5 0 0 1 463.49,503.9769 L463.49,176.0869 A2.5,2.5 0 0 1 465.99,173.5869" fill="#F0F4F8" style="stroke:#6A8AAA;stroke-width:1.5;"/><line style="stroke:#6A8AAA;stroke-width:1.5;" x1="463.49" x2="585.5095" y1="195.8838" y2="195.8838"/><text fill="#000000" font-family="Helvetica" font-size="14" font-weight="bold" lengthAdjust="spacing" textLength="109.0195" x="467.49" y="188.582">Orchestration</text></g><!--cluster InnerPkg--><g class="cluster" data-qualified-name="InnerPkg" data-source-line="22" id="ent0010"><path d="M210.99,555.4769 L334.7156,555.4769 A3.75,3.75 0 0 1 337.2156,557.9769 L344.2156,577.7738 L588.99,577.7738 A2.5,2.5 0 0 1 591.49,580.2738 L591.49,796.5769 A2.5,2.5 0 0 1 588.99,799.0769 L210.99,799.0769 A2.5,2.5 0 0 1 208.49,796.5769 L208.49,557.9769 A2.5,2.5 0 0 1 210.99,555.4769" fill="#F0F4F8" style="stroke:#6A8AAA;stroke-width:1.5;"/><line style="stroke:#6A8AAA;stroke-width:1.5;" x1="208.49" x2="344.2156" y1="577.7738" y2="577.7738"/><text fill="#000000" font-family="Helvetica" font-size="14" font-weight="bold" lengthAdjust="spacing" textLength="122.7256" x="212.49" y="570.472">Inner-tool layer</text></g><!--cluster LLMPkg--><g class="cluster" data-qualified-name="LLMPkg" data-source-line="29" id="ent0015"><path d="M1335.99,409.1869 L1448.532,409.1869 A3.75,3.75 0 0 1 1451.032,411.6869 L1458.032,431.4838 L2159.99,431.4838 A2.5,2.5 0 0 1 2162.49,433.9838 L2162.49,650.2769 A2.5,2.5 0 0 1 2159.99,652.7769 L1335.99,652.7769 A2.5,2.5 0 0 1 1333.49,650.2769 L1333.49,411.6869 A2.5,2.5 0 0 1 1335.99,409.1869" fill="#F0F4F8" style="stroke:#6A8AAA;stroke-width:1.5;"/><line style="stroke:#6A8AAA;stroke-width:1.5;" x1="1333.49" x2="1458.032" y1="431.4838" y2="431.4838"/><text fill="#000000" font-family="Helvetica" font-size="14" font-weight="bold" lengthAdjust="spacing" textLength="111.542" x="1337.49" y="424.182">LLM backends</text></g><!--cluster ObsPkg--><g class="cluster" data-qualified-name="ObsPkg" data-source-line="37" id="ent0021"><path d="M1050.99,701.7769 L1230.1687,701.7769 A3.75,3.75 0 0 1 1232.6687,704.2769 L1239.6687,724.0738 L1403.99,724.0738 A2.5,2.5 0 0 1 1406.49,726.5738 L1406.49,1171.0169 A2.5,2.5 0 0 1 1403.99,1173.5169 L1050.99,1173.5169 A2.5,2.5 0 0 1 1048.49,1171.0169 L1048.49,704.2769 A2.5,2.5 0 0 1 1050.99,701.7769" fill="#F0F4F8" style="stroke:#6A8AAA;stroke-width:1.5;"/><line style="stroke:#6A8AAA;stroke-width:1.5;" x1="1048.49" x2="1239.6687" y1="724.0738" y2="724.0738"/><text fill="#000000" font-family="Helvetica" font-size="14" font-weight="bold" lengthAdjust="spacing" textLength="178.1787" x="1052.49" y="716.772">Observer (Matrix side)</text></g><!--entity Runner--><g class="entity" data-qualified-name="RunnerPkg.Runner" data-source-line="11" id="ent0003"><rect fill="#F8F8F8" height="46.2969" rx="2.5" ry="2.5" style="stroke:#444444;stroke-width:0.5;" width="163.0264" x="707.97" y="78.2969"/><rect fill="#F8F8F8" height="10" style="stroke:#444444;stroke-width:0.5;" width="15" x="850.9964" y="83.2969"/><rect fill="#F8F8F8" height="2" style="stroke:#444444;stroke-width:0.5;" width="4" x="848.9964" y="85.2969"/><rect fill="#F8F8F8" height="2" style="stroke:#444444;stroke-width:0.5;" width="4" x="848.9964" y="89.2969"/><text fill="#000000" font-family="Helvetica" font-size="14" lengthAdjust="spacing" textLength="123.0264" x="722.97" y="111.292">"scripts/run_*.py"</text></g><!--entity Orch--><g class="entity" data-qualified-name="OrchPkg.Orch" data-source-line="15" id="ent0005"><rect fill="#F8F8F8" height="46.2969" rx="2.5" ry="2.5" style="stroke:#444444;stroke-width:0.5;" width="141.7666" x="718.6" y="208.5869"/><rect fill="#F8F8F8" height="10" style="stroke:#444444;stroke-width:0.5;" width="15" x="840.3666" y="213.5869"/><rect fill="#F8F8F8" height="2" style="stroke:#444444;stroke-width:0.5;" width="4" x="838.3666" y="215.5869"/><rect fill="#F8F8F8" height="2" style="stroke:#444444;stroke-width:0.5;" width="4" x="838.3666" y="219.5869"/><text fill="#000000" font-family="Helvetica" font-size="14" lengthAdjust="spacing" textLength="101.7666" x="733.6" y="241.582">"Orchestrator"</text></g><!--entity Disp--><g class="entity" data-qualified-name="OrchPkg.Disp" data-source-line="16" id="ent0006"><rect fill="#F8F8F8" height="46.2969" rx="2.5" ry="2.5" style="stroke:#444444;stroke-width:0.5;" width="128.7373" x="479.12" y="315.8869"/><rect fill="#F8F8F8" height="10" style="stroke:#444444;stroke-width:0.5;" width="15" x="587.8573" y="320.8869"/><rect fill="#F8F8F8" height="2" style="stroke:#444444;stroke-width:0.5;" width="4" x="585.8573" y="322.8869"/><rect fill="#F8F8F8" height="2" style="stroke:#444444;stroke-width:0.5;" width="4" x="585.8573" y="326.8869"/><text fill="#000000" font-family="Helvetica" font-size="14" lengthAdjust="spacing" textLength="88.7373" x="494.12" y="348.882">"Dispatcher"</text></g><!--entity Runtime--><g class="entity" data-qualified-name="OrchPkg.Runtime" data-source-line="17" id="ent0007"><rect fill="#F8F8F8" height="46.2969" rx="2.5" ry="2.5" style="stroke:#444444;stroke-width:0.5;" width="153.4219" x="642.78" y="315.8869"/><rect fill="#F8F8F8" height="10" style="stroke:#444444;stroke-width:0.5;" width="15" x="776.2019" y="320.8869"/><rect fill="#F8F8F8" height="2" style="stroke:#444444;stroke-width:0.5;" width="4" x="774.2019" y="322.8869"/><rect fill="#F8F8F8" height="2" style="stroke:#444444;stroke-width:0.5;" width="4" x="774.2019" y="326.8869"/><text fill="#000000" font-family="Helvetica" font-size="14" lengthAdjust="spacing" textLength="113.4219" x="657.78" y="348.882">"AgentRuntime"</text></g><!--entity Stages--><g class="entity" data-qualified-name="OrchPkg.Stages" data-source-line="18" id="ent0008"><rect fill="#F8F8F8" height="46.2969" rx="2.5" ry="2.5" style="stroke:#444444;stroke-width:0.5;" width="144.0498" x="831.46" y="315.8869"/><rect fill="#F8F8F8" height="10" style="stroke:#444444;stroke-width:0.5;" width="15" x="955.5098" y="320.8869"/><rect fill="#F8F8F8" height="2" style="stroke:#444444;stroke-width:0.5;" width="4" x="953.5098" y="322.8869"/><rect fill="#F8F8F8" height="2" style="stroke:#444444;stroke-width:0.5;" width="4" x="953.5098" y="326.8869"/><text fill="#000000" font-family="Helvetica" font-size="14" lengthAdjust="spacing" textLength="104.0498" x="846.46" y="348.882">"StageRunner"</text></g><!--entity Loop--><g class="entity" data-qualified-name="OrchPkg.Loop" data-source-line="19" id="ent0009"><rect fill="#F8F8F8" height="46.2969" rx="2.5" ry="2.5" style="stroke:#444444;stroke-width:0.5;" width="145.916" x="646.53" y="444.1869"/><rect fill="#F8F8F8" height="10" style="stroke:#444444;stroke-width:0.5;" width="15" x="772.446" y="449.1869"/><rect fill="#F8F8F8" height="2" style="stroke:#444444;stroke-width:0.5;" width="4" x="770.446" y="451.1869"/><rect fill="#F8F8F8" height="2" style="stroke:#444444;stroke-width:0.5;" width="4" x="770.446" y="455.1869"/><text fill="#000000" font-family="Helvetica" font-size="14" lengthAdjust="spacing" textLength="105.916" x="661.53" y="477.182">"Tool-call loop"</text></g><!--entity Inner--><g class="entity" data-qualified-name="InnerPkg.Inner" data-source-line="23" id="ent0011"><rect fill="#F8F8F8" height="46.2969" rx="2.5" ry="2.5" style="stroke:#444444;stroke-width:0.5;" width="129.6875" x="445.64" y="590.4769"/><rect fill="#F8F8F8" height="10" style="stroke:#444444;stroke-width:0.5;" width="15" x="555.3275" y="595.4769"/><rect fill="#F8F8F8" height="2" style="stroke:#444444;stroke-width:0.5;" width="4" x="553.3275" y="597.4769"/><rect fill="#F8F8F8" height="2" style="stroke:#444444;stroke-width:0.5;" width="4" x="553.3275" y="601.4769"/><text fill="#000000" font-family="Helvetica" font-size="14" lengthAdjust="spacing" textLength="89.6875" x="460.64" y="623.472">"inner_tools"</text></g><!--entity Hooks--><g class="entity" data-qualified-name="InnerPkg.Hooks" data-source-line="24" id="ent0012"><rect fill="#F8F8F8" height="46.2969" rx="2.5" ry="2.5" style="stroke:#444444;stroke-width:0.5;" width="132.791" x="410.09" y="736.7769"/><rect fill="#F8F8F8" height="10" style="stroke:#444444;stroke-width:0.5;" width="15" x="522.881" y="741.7769"/><rect fill="#F8F8F8" height="2" style="stroke:#444444;stroke-width:0.5;" width="4" x="520.881" y="743.7769"/><rect fill="#F8F8F8" height="2" style="stroke:#444444;stroke-width:0.5;" width="4" x="520.881" y="747.7769"/><text fill="#000000" font-family="Helvetica" font-size="14" lengthAdjust="spacing" textLength="92.791" x="425.09" y="769.772">"auto_hooks"</text></g><!--entity Learn--><g class="entity" data-qualified-name="InnerPkg.Learn" data-source-line="25" id="ent0013"><rect fill="#F8F8F8" height="46.2969" rx="2.5" ry="2.5" style="stroke:#444444;stroke-width:0.5;" width="148.7461" x="225.11" y="736.7769"/><rect fill="#F8F8F8" height="10" style="stroke:#444444;stroke-width:0.5;" width="15" x="353.8561" y="741.7769"/><rect fill="#F8F8F8" height="2" style="stroke:#444444;stroke-width:0.5;" width="4" x="351.8561" y="743.7769"/><rect fill="#F8F8F8" height="2" style="stroke:#444444;stroke-width:0.5;" width="4" x="351.8561" y="747.7769"/><text fill="#000000" font-family="Helvetica" font-size="14" lengthAdjust="spacing" textLength="108.7461" x="240.11" y="769.772">"auto_learning"</text></g><!--entity Spec--><g class="entity" data-qualified-name="InnerPkg.Spec" data-source-line="26" id="ent0014"><rect fill="#F8F8F8" height="46.2969" rx="2.5" ry="2.5" style="stroke:#444444;stroke-width:0.5;" width="186.0771" x="224.45" y="590.4769"/><rect fill="#F8F8F8" height="10" style="stroke:#444444;stroke-width:0.5;" width="15" x="390.5271" y="595.4769"/><rect fill="#F8F8F8" height="2" style="stroke:#444444;stroke-width:0.5;" width="4" x="388.5271" y="597.4769"/><rect fill="#F8F8F8" height="2" style="stroke:#444444;stroke-width:0.5;" width="4" x="388.5271" y="601.4769"/><text fill="#000000" font-family="Helvetica" font-size="14" lengthAdjust="spacing" textLength="146.0771" x="239.45" y="623.472">"Specification gates"</text></g><!--entity LLMP--><g class="entity" data-qualified-name="LLMPkg.LLMP" data-source-line="30" id="ent0016"><rect fill="#F8F8F8" height="46.2969" rx="2.5" ry="2.5" style="stroke:#444444;stroke-width:0.5;" width="137.5283" x="1575.72" y="590.4769"/><rect fill="#F8F8F8" height="10" style="stroke:#444444;stroke-width:0.5;" width="15" x="1693.2483" y="595.4769"/><rect fill="#F8F8F8" height="2" style="stroke:#444444;stroke-width:0.5;" width="4" x="1691.2483" y="597.4769"/><rect fill="#F8F8F8" height="2" style="stroke:#444444;stroke-width:0.5;" width="4" x="1691.2483" y="601.4769"/><text fill="#000000" font-family="Helvetica" font-size="14" lengthAdjust="spacing" textLength="97.5283" x="1590.72" y="623.472">"LLMProtocol"</text></g><!--entity Ollama--><g class="entity" data-qualified-name="LLMPkg.Ollama" data-source-line="31" id="ent0017"><rect fill="#F8F8F8" height="46.2969" rx="2.5" ry="2.5" style="stroke:#444444;stroke-width:0.5;" width="158.2617" x="1777.36" y="444.1869"/><rect fill="#F8F8F8" height="10" style="stroke:#444444;stroke-width:0.5;" width="15" x="1915.6217" y="449.1869"/><rect fill="#F8F8F8" height="2" style="stroke:#444444;stroke-width:0.5;" width="4" x="1913.6217" y="451.1869"/><rect fill="#F8F8F8" height="2" style="stroke:#444444;stroke-width:0.5;" width="4" x="1913.6217" y="455.1869"/><text fill="#000000" font-family="Helvetica" font-size="14" lengthAdjust="spacing" textLength="118.2617" x="1792.36" y="477.182">"OllamaAdapter"</text></g><!--entity Anthropic--><g class="entity" data-qualified-name="LLMPkg.Anthropic" data-source-line="32" id="ent0018"><rect fill="#F8F8F8" height="46.2969" rx="2.5" ry="2.5" style="stroke:#444444;stroke-width:0.5;" width="176.2744" x="1970.35" y="444.1869"/><rect fill="#F8F8F8" height="10" style="stroke:#444444;stroke-width:0.5;" width="15" x="2126.6244" y="449.1869"/><rect fill="#F8F8F8" height="2" style="stroke:#444444;stroke-width:0.5;" width="4" x="2124.6244" y="451.1869"/><rect fill="#F8F8F8" height="2" style="stroke:#444444;stroke-width:0.5;" width="4" x="2124.6244" y="455.1869"/><text fill="#000000" font-family="Helvetica" font-size="14" lengthAdjust="spacing" textLength="136.2744" x="1985.35" y="477.182">"AnthropicAdapter"</text></g><!--entity LiteLLM--><g class="entity" data-qualified-name="LLMPkg.LiteLLM" data-source-line="33" id="ent0019"><rect fill="#F8F8F8" height="46.2969" rx="2.5" ry="2.5" style="stroke:#444444;stroke-width:0.5;" width="162.1377" x="1349.42" y="444.1869"/><rect fill="#F8F8F8" height="10" style="stroke:#444444;stroke-width:0.5;" width="15" x="1491.5577" y="449.1869"/><rect fill="#F8F8F8" height="2" style="stroke:#444444;stroke-width:0.5;" width="4" x="1489.5577" y="451.1869"/><rect fill="#F8F8F8" height="2" style="stroke:#444444;stroke-width:0.5;" width="4" x="1489.5577" y="455.1869"/><text fill="#000000" font-family="Helvetica" font-size="14" lengthAdjust="spacing" textLength="122.1377" x="1364.42" y="477.182">"LiteLLMAdapter"</text></g><!--entity Subproc--><g class="entity" data-qualified-name="LLMPkg.Subproc" data-source-line="34" id="ent0020"><rect fill="#F8F8F8" height="46.2969" rx="2.5" ry="2.5" style="stroke:#444444;stroke-width:0.5;" width="194.8887" x="1547.04" y="444.1869"/><rect fill="#F8F8F8" height="10" style="stroke:#444444;stroke-width:0.5;" width="15" x="1721.9287" y="449.1869"/><rect fill="#F8F8F8" height="2" style="stroke:#444444;stroke-width:0.5;" width="4" x="1719.9287" y="451.1869"/><rect fill="#F8F8F8" height="2" style="stroke:#444444;stroke-width:0.5;" width="4" x="1719.9287" y="455.1869"/><text fill="#000000" font-family="Helvetica" font-size="14" lengthAdjust="spacing" textLength="154.8887" x="1562.04" y="477.182">"ClaudeCodeSubproc"</text></g><!--entity Conduit--><g class="entity" data-qualified-name="ObsPkg.Conduit" data-source-line="38" id="ent0022"><rect fill="#F8F8F8" height="46.2969" rx="2.5" ry="2.5" style="stroke:#444444;stroke-width:0.5;" width="195.6885" x="1101.64" y="864.6269"/><rect fill="#F8F8F8" height="10" style="stroke:#444444;stroke-width:0.5;" width="15" x="1277.3285" y="869.6269"/><rect fill="#F8F8F8" height="2" style="stroke:#444444;stroke-width:0.5;" width="4" x="1275.3285" y="871.6269"/><rect fill="#F8F8F8" height="2" style="stroke:#444444;stroke-width:0.5;" width="4" x="1275.3285" y="875.6269"/><text fill="#000000" font-family="Helvetica" font-size="14" lengthAdjust="spacing" textLength="155.6885" x="1116.64" y="897.622">"Conduit homeserver"</text></g><!--entity Events--><g class="entity" data-qualified-name="ObsPkg.Events" data-source-line="39" id="ent0023"><rect fill="#F8F8F8" height="46.2969" rx="2.5" ry="2.5" style="stroke:#444444;stroke-width:0.5;" width="168.8438" x="1064.06" y="987.9269"/><rect fill="#F8F8F8" height="10" style="stroke:#444444;stroke-width:0.5;" width="15" x="1212.9038" y="992.9269"/><rect fill="#F8F8F8" height="2" style="stroke:#444444;stroke-width:0.5;" width="4" x="1210.9038" y="994.9269"/><rect fill="#F8F8F8" height="2" style="stroke:#444444;stroke-width:0.5;" width="4" x="1210.9038" y="998.9269"/><text fill="#000000" font-family="Helvetica" font-size="14" lengthAdjust="spacing" textLength="128.8438" x="1079.06" y="1020.922">"EventDispatcher"</text></g><!--entity Render--><g class="entity" data-qualified-name="ObsPkg.Render" data-source-line="40" id="ent0024"><rect fill="#F8F8F8" height="46.2969" rx="2.5" ry="2.5" style="stroke:#444444;stroke-width:0.5;" width="117.7178" x="1065.63" y="736.7769"/><rect fill="#F8F8F8" height="10" style="stroke:#444444;stroke-width:0.5;" width="15" x="1163.3478" y="741.7769"/><rect fill="#F8F8F8" height="2" style="stroke:#444444;stroke-width:0.5;" width="4" x="1161.3478" y="743.7769"/><rect fill="#F8F8F8" height="2" style="stroke:#444444;stroke-width:0.5;" width="4" x="1161.3478" y="747.7769"/><text fill="#000000" font-family="Helvetica" font-size="14" lengthAdjust="spacing" textLength="77.7178" x="1080.63" y="769.772">"Renderer"</text></g><!--entity Review--><g class="entity" data-qualified-name="ObsPkg.Review" data-source-line="41" id="ent0025"><rect fill="#F8F8F8" height="46.2969" rx="2.5" ry="2.5" style="stroke:#444444;stroke-width:0.5;" width="186.1592" x="1134.41" y="1111.2169"/><rect fill="#F8F8F8" height="10" style="stroke:#444444;stroke-width:0.5;" width="15" x="1300.5692" y="1116.2169"/><rect fill="#F8F8F8" height="2" style="stroke:#444444;stroke-width:0.5;" width="4" x="1298.5692" y="1118.2169"/><rect fill="#F8F8F8" height="2" style="stroke:#444444;stroke-width:0.5;" width="4" x="1298.5692" y="1122.2169"/><text fill="#000000" font-family="Helvetica" font-size="14" lengthAdjust="spacing" textLength="146.1592" x="1149.41" y="1144.212">"ReviewCoordinator"</text></g><!--entity Git--><g class="entity" data-qualified-name="Git" data-source-line="44" id="ent0026"><path d="M397.63,875.1269 C397.63,865.1269 476.485,865.1269 476.485,865.1269 C476.485,865.1269 555.34,865.1269 555.34,875.1269 L555.34,900.4238 C555.34,910.4238 476.485,910.4238 476.485,910.4238 C476.485,910.4238 397.63,910.4238 397.63,900.4238 L397.63,875.1269" fill="#F1F1F1" style="stroke:#181818;stroke-width:0.5;"/><path d="M397.63,875.1269 C397.63,885.1269 476.485,885.1269 476.485,885.1269 C476.485,885.1269 555.34,885.1269 555.34,875.1269" fill="none" style="stroke:#181818;stroke-width:0.5;"/><text fill="#000000" font-family="Helvetica" font-size="14" lengthAdjust="spacing" textLength="137.71" x="407.63" y="902.122">Per-project Git repo</text></g><!--entity WD--><g class="entity" data-qualified-name="WD" data-source-line="45" id="ent0027"><path d="M912.52,747.2769 C912.52,737.2769 971.4858,737.2769 971.4858,737.2769 C971.4858,737.2769 1030.4516,737.2769 1030.4516,747.2769 L1030.4516,772.5738 C1030.4516,782.5738 971.4858,782.5738 971.4858,782.5738 C971.4858,782.5738 912.52,782.5738 912.52,772.5738 L912.52,747.2769" fill="#F1F1F1" style="stroke:#181818;stroke-width:0.5;"/><path d="M912.52,747.2769 C912.52,757.2769 971.4858,757.2769 971.4858,757.2769 C971.4858,757.2769 1030.4516,757.2769 1030.4516,747.2769" fill="none" style="stroke:#181818;stroke-width:0.5;"/><text fill="#000000" font-family="Helvetica" font-size="14" lengthAdjust="spacing" textLength="97.9316" x="922.52" y="774.272">workspace dir</text></g><g class="entity" data-qualified-name="GMN53" data-source-line="74" id="ent0054"><path d="M607.92,732.2269 L607.92,787.6253 L877.0499,787.6253 L877.0499,742.2269 L867.0499,732.2269 L607.92,732.2269" fill="#FEFFDD" style="stroke:#181818;stroke-width:0.5;"/><path d="M867.0499,732.2269 L867.0499,742.2269 L877.0499,742.2269 L867.0499,732.2269" fill="#FEFFDD" style="stroke:#181818;stroke-width:1;"/><text fill="#000000" font-family="Helvetica" font-size="13" lengthAdjust="spacing" textLength="210.6787" x="613.92" y="749.2938">Postconditions are ground truth.</text><text fill="#000000" font-family="Helvetica" font-size="13" lengthAdjust="spacing" textLength="248.1299" x="613.92" y="764.4266">The LLM's mark_complete is observed</text><text fill="#000000" font-family="Helvetica" font-size="13" lengthAdjust="spacing" textLength="206.1782" x="613.92" y="779.5594">but does not gate task success.</text></g><!--link Runner to Orch--><g class="link" data-entity-1="ent0003" data-entity-2="ent0005" data-link-type="dependency" data-source-line="47" id="lnk28"><path d="M789.49,125.0869 C789.49,148.5369 789.49,178.9569 789.49,202.3269" fill="none" id="Runner-to-Orch" style="stroke:#444444;stroke-width:1;"/><polygon fill="#444444" points="789.49,208.3269,793.49,199.3269,789.49,203.3269,785.49,199.3269,789.49,208.3269" style="stroke:#444444;stroke-width:1;"/></g><!--link Orch to Disp--><g class="link" data-entity-1="ent0005" data-entity-2="ent0006" data-link-type="dependency" data-source-line="48" id="lnk29"><path d="M736.71,255.3269 C695.21,273.0969 643.1759,295.3658 601.6859,313.1258" fill="none" id="Orch-to-Disp" style="stroke:#444444;stroke-width:1;"/><polygon fill="#444444" points="596.17,315.4869,606.0179,315.6225,600.7666,313.5193,602.8698,308.2679,596.17,315.4869" style="stroke:#444444;stroke-width:1;"/></g><!--link Orch to Runtime--><g class="link" data-entity-1="ent0005" data-entity-2="ent0007" data-link-type="dependency" data-source-line="49" id="lnk30"><path d="M774.47,255.3269 C762.66,273.0969 749.6004,292.7294 737.8004,310.4894" fill="none" id="Orch-to-Runtime" style="stroke:#444444;stroke-width:1;"/><polygon fill="#444444" points="734.48,315.4869,742.7923,310.2042,737.247,311.3223,736.1289,305.777,734.48,315.4869" style="stroke:#444444;stroke-width:1;"/></g><!--link Orch to Stages--><g class="link" data-entity-1="ent0005" data-entity-2="ent0008" data-link-type="dependency" data-source-line="50" id="lnk31"><path d="M813.94,255.3269 C833.18,273.0969 855.4433,293.6549 874.6633,311.4149" fill="none" id="Orch-to-Stages" style="stroke:#444444;stroke-width:1;"/><polygon fill="#444444" points="879.07,315.4869,875.1746,306.4411,875.3977,312.0936,869.7453,312.3167,879.07,315.4869" style="stroke:#444444;stroke-width:1;"/></g><!--link Orch to Conduit--><g class="link" data-entity-1="ent0005" data-entity-2="ent0022" data-link-type="dependency" data-source-line="51" id="lnk32"><path d="M860.81,234.9069 C987.01,240.7069 1236.49,261.7969 1236.49,338.0369 C1236.49,338.0369 1236.49,338.0369 1236.49,760.9269 C1236.49,798.2769 1223.7201,833.9266 1212.8101,858.6766" fill="none" id="Orch-to-Conduit" style="stroke:#444444;stroke-width:1;"/><polygon fill="#444444" points="1210.39,864.1669,1217.6804,857.5449,1212.4068,859.5917,1210.3601,854.3181,1210.39,864.1669" style="stroke:#444444;stroke-width:1;"/><text fill="#000000" font-family="Helvetica" font-size="13" lengthAdjust="spacing" textLength="79.5996" x="1237.49" y="535.5438">create room</text></g><!--link Runtime to Loop--><g class="link" data-entity-1="ent0007" data-entity-2="ent0009" data-link-type="dependency" data-source-line="52" id="lnk33"><path d="M719.49,362.6169 C719.49,385.6069 719.49,415.0269 719.49,437.9469" fill="none" id="Runtime-to-Loop" style="stroke:#444444;stroke-width:1;"/><polygon fill="#444444" points="719.49,443.9469,723.49,434.9469,719.49,438.9469,715.49,434.9469,719.49,443.9469" style="stroke:#444444;stroke-width:1;"/></g><!--link Stages to Loop--><g class="link" data-entity-1="ent0008" data-entity-2="ent0009" data-link-type="dependency" data-source-line="53" id="lnk34"><path d="M870.59,362.6169 C837.2,385.5369 790.7467,417.4213 757.3567,440.3413" fill="none" id="Stages-to-Loop" style="stroke:#444444;stroke-width:1;"/><polygon fill="#444444" points="752.41,443.7369,762.0938,441.9413,756.5323,440.9072,757.5663,435.3457,752.41,443.7369" style="stroke:#444444;stroke-width:1;"/></g><!--link Loop to Inner--><g class="link" data-entity-1="ent0009" data-entity-2="ent0011" data-link-type="dependency" data-source-line="54" id="lnk35"><path d="M686.83,490.8769 C647.68,517.9069 587.3972,559.5274 548.1972,586.5974" fill="none" id="Loop-to-Inner" style="stroke:#444444;stroke-width:1;"/><polygon fill="#444444" points="543.26,590.0069,552.9387,588.1842,547.3743,587.1657,548.3928,581.6013,543.26,590.0069" style="stroke:#444444;stroke-width:1;"/></g><!--link Loop to LLMP--><g class="link" data-entity-1="ent0009" data-entity-2="ent0016" data-link-type="dependency" data-source-line="55" id="lnk36"><path d="M792.84,470.4869 C907.41,474.8269 1135.39,487.4469 1325.49,522.4769 C1414.49,538.8869 1508.8073,567.2817 1572.7373,588.1917" fill="none" id="Loop-to-LLMP" style="stroke:#444444;stroke-width:1;"/><polygon fill="#444444" points="1578.44,590.0569,1571.1294,583.4572,1573.6877,588.5025,1568.6424,591.0608,1578.44,590.0569" style="stroke:#444444;stroke-width:1;"/></g><!--link Loop to Spec--><g class="link" data-entity-1="ent0009" data-entity-2="ent0014" data-link-type="dependency" data-source-line="56" id="lnk37"><path d="M646.25,482.5969 C586.3,495.6069 500.03,517.3869 428.49,547.4769 C400.89,559.0869 376.8123,573.1449 355.3223,587.0049" fill="none" id="Loop-to-Spec" style="stroke:#444444;stroke-width:1;"/><polygon fill="#444444" points="350.28,590.2569,360.0114,588.7404,354.4819,587.5469,355.6754,582.0173,350.28,590.2569" style="stroke:#444444;stroke-width:1;"/></g><!--link Loop to Render--><g class="link" data-entity-1="ent0009" data-entity-2="ent0024" data-link-type="dependency" data-source-line="57" id="lnk38"><path d="M760.3,490.8469 C821.83,525.5669 940.86,595.8269 1032.49,668.7769 C1058.9,689.8069 1082.0535,713.0223 1099.9735,732.1123" fill="none" id="Loop-to-Render" style="stroke:#444444;stroke-width:1;"/><polygon fill="#444444" points="1104.08,736.4869,1100.8367,727.1874,1100.6579,732.8414,1095.0039,732.6627,1104.08,736.4869" style="stroke:#444444;stroke-width:1;"/><text fill="#000000" font-family="Helvetica" font-size="13" lengthAdjust="spacing" textLength="127.1689" x="1020.39" y="618.1938">phase / task events</text></g><!--link Inner to Hooks--><g class="link" data-entity-1="ent0011" data-entity-2="ent0012" data-link-type="dependency" data-source-line="58" id="lnk39"><path d="M505.17,637.1769 C498.79,664.2869 489.5058,703.6567 483.1358,730.6967" fill="none" id="Inner-to-Hooks" style="stroke:#444444;stroke-width:1;"/><polygon fill="#444444" points="481.76,736.5369,487.7171,728.6939,482.9065,731.6701,479.9303,726.8595,481.76,736.5369" style="stroke:#444444;stroke-width:1;"/><text fill="#000000" font-family="Helvetica" font-size="13" lengthAdjust="spacing" textLength="97.1382" x="498.53" y="681.8438">after write/edit</text></g><!--link Inner to WD--><g class="link" data-entity-1="ent0011" data-entity-2="ent0027" data-link-type="dependency" data-source-line="59" id="lnk40"><path d="M575.59,632.5569 C636.61,648.7169 730.6,672.0169 813.49,685.7769 C849.17,691.7069 861.17,679.6769 894.49,693.7769 C917.06,703.3369 933.8225,717.5908 948.1325,732.4808" fill="none" id="Inner-to-WD" style="stroke:#444444;stroke-width:1;"/><polygon fill="#444444" points="952.29,736.8069,948.9377,727.5461,948.8254,733.2018,943.1696,733.0895,952.29,736.8069" style="stroke:#444444;stroke-width:1;"/><text fill="#000000" font-family="Helvetica" font-size="13" lengthAdjust="spacing" textLength="57.9668" x="814.49" y="681.8438">artefacts</text></g><!--link Inner to Render--><g class="link" data-entity-1="ent0011" data-entity-2="ent0024" data-link-type="dependency" data-source-line="60" id="lnk41"><path d="M575.55,618.4669 C649.72,624.1569 773.97,637.7369 876.49,668.7769 C893.42,673.9069 895.34,681.3969 912.49,685.7769 C941.6,693.2169 1019.59,682.6069 1047.49,693.7769 C1070.25,702.8869 1087.0074,717.167 1101.2674,732.177" fill="none" id="Inner-to-Render" style="stroke:#444444;stroke-width:1;"/><polygon fill="#444444" points="1105.4,736.5269,1102.1011,727.2469,1101.9562,732.9019,1096.3012,732.757,1105.4,736.5269" style="stroke:#444444;stroke-width:1;"/><text fill="#000000" font-family="Helvetica" font-size="13" lengthAdjust="spacing" textLength="114.0166" x="913.49" y="681.8438">write-event cards</text></g><!--link Hooks to Git--><g class="link" data-entity-1="ent0012" data-entity-2="ent0026" data-link-type="dependency" data-source-line="61" id="lnk42"><path d="M476.49,783.4269 C476.49,806.4769 476.49,836.0669 476.49,858.8969" fill="none" id="Hooks-to-Git" style="stroke:#444444;stroke-width:1;"/><polygon fill="#444444" points="476.49,864.8969,480.49,855.8969,476.49,859.8969,472.49,855.8969,476.49,864.8969" style="stroke:#444444;stroke-width:1;"/><text fill="#000000" font-family="Helvetica" font-size="13" lengthAdjust="spacing" textLength="83.0845" x="477.49" y="830.6938">auto-commit</text></g><!--link Spec to Learn--><g class="link" data-entity-1="ent0014" data-entity-2="ent0013" data-link-type="dependency" data-source-line="62" id="lnk43"><path d="M314.67,637.1769 C311.29,664.2869 306.392,703.5429 303.022,730.5829" fill="none" id="Spec-to-Learn" style="stroke:#444444;stroke-width:1;"/><polygon fill="#444444" points="302.28,736.5369,307.3624,728.1007,302.8984,731.5753,299.4238,727.1113,302.28,736.5369" style="stroke:#444444;stroke-width:1;"/><text fill="#000000" font-family="Helvetica" font-size="13" lengthAdjust="spacing" textLength="61.6738" x="311.63" y="681.8438">on failure</text></g><!--link Learn to Loop--><g class="link" data-entity-1="ent0013" data-entity-2="ent0009" data-link-type="dependency" data-source-line="63" id="lnk44"><path d="M224.76,753.1369 C163.66,744.0069 80.85,720.6069 39.49,660.7769 C10.85,619.3569 6,585.0869 39.49,547.4769 C79.35,502.7069 472.7266,479.6292 640.1966,471.7392" fill="none" id="Learn-to-Loop" style="stroke:#444444;stroke-width:1;"/><polygon fill="#444444" points="646.19,471.4569,637.0117,467.8849,641.1955,471.6922,637.3882,475.876,646.19,471.4569" style="stroke:#444444;stroke-width:1;"/><text fill="#000000" font-family="Helvetica" font-size="13" lengthAdjust="spacing" textLength="165.8452" x="40.49" y="618.1938">injected into next prompt</text></g><!--link Ollama to LLMP--><g class="link" data-entity-1="ent0017" data-entity-2="ent0016" data-link-type="dependency" data-source-line="64" id="lnk45"><path d="M1823.36,490.8769 C1783.65,517.9069 1722.4496,559.5602 1682.6896,586.6302" fill="none" id="Ollama-to-LLMP" style="stroke:#444444;stroke-width:1;"/><polygon fill="#444444" points="1677.73,590.0069,1687.4206,588.2483,1681.863,587.193,1682.9183,581.6354,1677.73,590.0069" style="stroke:#444444;stroke-width:1;"/></g><!--link Anthropic to LLMP--><g class="link" data-entity-1="ent0018" data-entity-2="ent0016" data-link-type="dependency" data-source-line="65" id="lnk46"><path d="M2010.05,490.9069 C1992.41,498.7869 1972.21,507.4169 1953.49,514.4769 C1872.25,545.1369 1782.4879,572.7897 1719.3879,591.2797" fill="none" id="Anthropic-to-LLMP" style="stroke:#444444;stroke-width:1;"/><polygon fill="#444444" points="1713.63,592.9669,1723.3916,594.2746,1718.4282,591.5609,1721.142,586.5975,1713.63,592.9669" style="stroke:#444444;stroke-width:1;"/></g><!--link LiteLLM to LLMP--><g class="link" data-entity-1="ent0019" data-entity-2="ent0016" data-link-type="dependency" data-source-line="66" id="lnk47"><path d="M1463.92,490.8769 C1504.01,517.9069 1565.8155,559.5821 1605.9555,586.6521" fill="none" id="LiteLLM-to-LLMP" style="stroke:#444444;stroke-width:1;"/><polygon fill="#444444" points="1610.93,590.0069,1605.7048,581.6584,1606.7846,587.2112,1601.2318,588.2911,1610.93,590.0069" style="stroke:#444444;stroke-width:1;"/></g><!--link Subproc to LLMP--><g class="link" data-entity-1="ent0020" data-entity-2="ent0016" data-link-type="dependency" data-source-line="67" id="lnk48"><path d="M1644.49,490.8769 C1644.49,517.9869 1644.49,557.2069 1644.49,584.2469" fill="none" id="Subproc-to-LLMP" style="stroke:#444444;stroke-width:1;"/><polygon fill="#444444" points="1644.49,590.2469,1648.49,581.2469,1644.49,585.2469,1640.49,581.2469,1644.49,590.2469" style="stroke:#444444;stroke-width:1;"/></g><!--link Render to Conduit--><g class="link" data-entity-1="ent0024" data-entity-2="ent0022" data-link-type="dependency" data-source-line="68" id="lnk49"><path d="M1122.51,783.2469 C1122.16,798.6169 1123.77,819.0069 1132.49,834.6269 C1139.02,846.3369 1144.5838,852.7118 1155.2138,860.7018" fill="none" id="Render-to-Conduit" style="stroke:#444444;stroke-width:1;"/><polygon fill="#444444" points="1160.01,864.3069,1155.2191,855.7018,1156.0132,861.3027,1150.4123,862.0968,1160.01,864.3069" style="stroke:#444444;stroke-width:1;"/><text fill="#000000" font-family="Helvetica" font-size="13" lengthAdjust="spacing" textLength="76.0068" x="1133.49" y="830.6938">post events</text></g><!--link Conduit to Events--><g class="link" data-entity-1="ent0022" data-entity-2="ent0023" data-link-type="dependency" data-source-line="69" id="lnk50"><path d="M1190.01,911.3069 C1180.85,933.0969 1169.3754,960.3858 1160.2354,982.1258" fill="none" id="Conduit-to-Events" style="stroke:#444444;stroke-width:1;"/><polygon fill="#444444" points="1157.91,987.6569,1165.0854,980.9105,1159.8478,983.0477,1157.7107,977.81,1157.91,987.6569" style="stroke:#444444;stroke-width:1;"/><text fill="#000000" font-family="Helvetica" font-size="13" lengthAdjust="spacing" textLength="83.2622" x="1178.04" y="953.9938">sync_forever</text></g><!--link Events to Review--><g class="link" data-entity-1="ent0023" data-entity-2="ent0025" data-link-type="dependency" data-source-line="70" id="lnk51"><path d="M1163.16,1034.6069 C1177.35,1056.3869 1195.4554,1084.1893 1209.6154,1105.9293" fill="none" id="Events-to-Review" style="stroke:#444444;stroke-width:1;"/><polygon fill="#444444" points="1212.89,1110.9569,1211.3298,1101.2324,1210.1611,1106.7672,1204.6263,1105.5986,1212.89,1110.9569" style="stroke:#444444;stroke-width:1;"/><text fill="#000000" font-family="Helvetica" font-size="13" lengthAdjust="spacing" textLength="93.666" x="1193.72" y="1077.2838">poll responses</text></g><!--link Review to Conduit--><g class="link" data-entity-1="ent0025" data-entity-2="ent0022" data-link-type="dependency" data-source-line="71" id="lnk52"><path d="M1269.07,1110.9069 C1279.63,1103.0169 1289.63,1093.0969 1295.49,1081.2169 C1298.83,1074.4469 1296.24,1071.7369 1295.49,1064.2169 C1289.9,1008.5869 1300.6,988.0369 1270.49,940.9269 C1262.99,929.1969 1256.7403,922.6932 1245.5003,914.7032" fill="none" id="Review-to-Conduit" style="stroke:#444444;stroke-width:1;"/><polygon fill="#444444" points="1240.61,911.2269,1245.6279,919.7016,1244.6853,914.1238,1250.263,913.1811,1240.61,911.2269" style="stroke:#444444;stroke-width:1;"/><text fill="#000000" font-family="Helvetica" font-size="13" lengthAdjust="spacing" textLength="86.1758" x="1294.59" y="1015.6338">poll + replies</text></g><!--link Spec to GMN53--><g class="link" data-entity-1="ent0014" data-entity-2="ent0054" data-link-type="association" data-source-line="74" id="lnk55"><path d="M361.68,637.1769 C381.58,646.2169 405.67,655.6869 428.49,660.7769 C466.7,669.3069 567.23,656.7569 604.49,668.7769 C645.2,681.9169 685.43,710.4469 711.85,731.9269" fill="none" id="Spec-GMN53" style="stroke:#444444;stroke-width:1;stroke-dasharray:7,7;"/></g><?plantuml-src RLLHRnCv47xVNp7gFS21qjv3TKBtW9HBALGgK04I3mX5ZdUI-EBrhEpPbWhnts_iSNQpW295cU_xF9uPVtROiKTOxYWQM4QxTuoMXuZm_XxZlSE7faa75teJJIU2I0yhyXJXZylBonDcHLrF0GF_Q-nX5sa8RTLTlyYVtqefjXX_c-vEifWT_fhih-lBMRAZy3JLtyiNo-NoH7I5MpDulgR0xqo7y0RzFRApfcbwNGzd7uOGC4AoqVLy1YQ18dU77Nnl0BwSAPKkuX3MpyxxnxElawhvSPBglOmH4qV3Za99bP4fqSHJr2GPATILIxrXeIkHuq8iTp8msOjTX-F6EIZiHvQDjH8b2v0Azud8Bwpn7ZnHh_Ij_9gLV9ENBbYauCsZPCcgctd_BeVhh4cQfV25CWFJUazqgCoR_7DYF9eONDZLpNEaPVTetLRE8GyATeQnhi_4hBxRsxUmaG13cqfj0aoLvI0IaoLVjn10H-szwSooDJqVHwEG3ZNmFbBlx4mmeffRBeIacoagLlYLDqEBAshnux3f8zdQWGPpNsoIN2ansTEtXgFx1icr-ASQP9EcTbOKsi4nxAb3NQ4vAruqh-x53p-xfO0wzmyoAOn7GgDAv4kz8hamBamEL3YNsnes6vEatZknX3Jndpm8y5hgYTXJgLQ24za3nOFKOH5QfyRvVDKqzJuj5Y_LtVchHCNIOtHqyGXKvuxnSHZ_W8qe3e58r3LrML4KC-koASvV9LAJZc5nnXWLdusHJabswlUviGjWamw0EjIRiPrYRb6PhHW27gAOuG9R6Saa-NoL-SZoxjZPsd6BicnHSeCriKsDfisYrwNTV7CMbhfECkSwjVnyTuIKwx8rpiixtIXqR5mu5_A9OIi_c23WDmOvnQxdHgq_pM5q-iberDeJK8qy0RM5-TdqbFWugIEQ5Uf84QJ7ODTRYgA9JKLr8Dbt9OEyK16J_3KaEV-A_xoBQ9vd7tedcYQG-653pDG1RVKq0Uwa5YjhN7vLaXm3Wlw70CU1z-SY-RJ7tCoJ19s9XxLCkVSekLm2qalQYcepCBGahf9zokkaXaY3jPZIUIE3o1J-3m00?></g></svg>