<?plantuml 1.2026.2?><svg xmlns="http://www.w3.org/2000/svg" xmlns:xlink="http://www.w3.org/1999/xlink" contentStyleType="text/css" data-diagram-type="STATE" height="996px" preserveAspectRatio="none" style="width:1095px;height:996px;background:#FFFFFF;" version="1.1" viewBox="0 0 1095 996" width="1095px" zoomAndPan="magnify"><title>Project Phase State Machine</title><defs/><g><g class="title" data-source-line="1"><text fill="#000000" font-family="sans-serif" font-size="14" font-weight="bold" lengthAdjust="spacing" textLength="226.5088" x="427.6389" y="22.9951">Project Phase State Machine</text></g><g class="entity" data-qualified-name="DONE" id="ent0002"><rect fill="#FFE4B5" height="50" rx="12.5" ry="12.5" style="stroke:#181818;stroke-width:0.5;" width="61.1182" x="857.44" y="381.9569"/><line style="stroke:#181818;stroke-width:0.5;" x1="857.44" x2="918.5582" y1="408.2537" y2="408.2537"/><text fill="#000000" font-family="Helvetica" font-size="14" lengthAdjust="spacing" textLength="41.1182" x="867.44" y="399.952">DONE</text></g><g class="entity" data-qualified-name="FAILED" id="ent0003"><rect fill="#FFCCCC" height="50" rx="12.5" ry="12.5" style="stroke:#181818;stroke-width:0.5;" width="69.1846" x="518.41" y="857.9569"/><line style="stroke:#181818;stroke-width:0.5;" x1="518.41" x2="587.5946" y1="884.2538" y2="884.2538"/><text fill="#000000" font-family="Helvetica" font-size="14" lengthAdjust="spacing" textLength="49.1846" x="528.41" y="875.952">FAILED</text></g><g class="start_entity" data-qualified-name=".start." data-source-line="10" id="ent0002"><ellipse cx="35" cy="53.2969" fill="#222222" rx="10" ry="10" style="stroke:#222222;stroke-width:1;"/></g><g class="entity" data-qualified-name="INIT" id="ent0003"><rect fill="#F1F1F1" height="50" rx="12.5" ry="12.5" style="stroke:#181818;stroke-width:0.5;" width="50" x="10" y="142.1269"/><line style="stroke:#181818;stroke-width:0.5;" x1="10" x2="60" y1="168.4237" y2="168.4237"/><text fill="#000000" font-family="Helvetica" font-size="14" lengthAdjust="spacing" textLength="27.2822" x="21.3589" y="160.122">INIT</text></g><g class="entity" data-qualified-name="ANALYSIS" id="ent0005"><rect fill="#F1F1F1" height="50" rx="12.5" ry="12.5" style="stroke:#181818;stroke-width:0.5;" width="87.8809" x="120.06" y="301.9569"/><line style="stroke:#181818;stroke-width:0.5;" x1="120.06" x2="207.9409" y1="328.2537" y2="328.2537"/><text fill="#000000" font-family="Helvetica" font-size="14" lengthAdjust="spacing" textLength="67.8809" x="130.06" y="319.952">ANALYSIS</text></g><g class="entity" data-qualified-name="ARCHITECTURE" id="ent0007"><rect fill="#F1F1F1" height="50" rx="12.5" ry="12.5" style="stroke:#181818;stroke-width:0.5;" width="128.2813" x="246.86" y="461.9569"/><line style="stroke:#181818;stroke-width:0.5;" x1="246.86" x2="375.1413" y1="488.2537" y2="488.2537"/><text fill="#000000" font-family="Helvetica" font-size="14" lengthAdjust="spacing" textLength="108.2813" x="256.86" y="479.952">ARCHITECTURE</text></g><g class="entity" data-qualified-name="IMPLEMENTATION" id="ent0009"><rect fill="#F1F1F1" height="50" rx="12.5" ry="12.5" style="stroke:#181818;stroke-width:0.5;" width="144.9951" x="467.5" y="603.9569"/><line style="stroke:#181818;stroke-width:0.5;" x1="467.5" x2="612.4951" y1="630.2538" y2="630.2538"/><text fill="#000000" font-family="Helvetica" font-size="14" lengthAdjust="spacing" textLength="124.9951" x="477.5" y="621.952">IMPLEMENTATION</text></g><g class="entity" data-qualified-name="TESTING" id="ent0011"><rect fill="#F1F1F1" height="50" rx="12.5" ry="12.5" style="stroke:#181818;stroke-width:0.5;" width="80.2861" x="516.86" y="730.9569"/><line style="stroke:#181818;stroke-width:0.5;" x1="516.86" x2="597.1461" y1="757.2538" y2="757.2538"/><text fill="#000000" font-family="Helvetica" font-size="14" lengthAdjust="spacing" textLength="60.2861" x="526.86" y="748.952">TESTING</text></g><g class="entity" data-qualified-name="REVIEW" id="ent0013"><rect fill="#F1F1F1" height="50" rx="12.5" ry="12.5" style="stroke:#181818;stroke-width:0.5;" width="74.9678" x="588.52" y="142.1269"/><line style="stroke:#181818;stroke-width:0.5;" x1="588.52" x2="663.4878" y1="168.4237" y2="168.4237"/><text fill="#000000" font-family="Helvetica" font-size="14" lengthAdjust="spacing" textLength="54.9678" x="598.52" y="160.122">REVIEW</text></g><g class="end_entity" data-qualified-name=".end." data-source-line="36" id="ent0026"><ellipse cx="737" cy="979.9569" fill="none" rx="11" ry="11" style="stroke:#222222;stroke-width:1;"/><ellipse cx="737" cy="979.9569" fill="#222222" rx="6" ry="6" style="stroke:#222222;stroke-width:1;"/></g><g class="entity" data-qualified-name="GMN2" data-source-line="40" id="ent0003"><path d="M698.61,124.2969 L698.61,163.1269 L663.89,167.1269 L698.61,171.1269 L698.61,209.9609 A0,0 0 0 0 698.61,209.9609 L909.3922,209.9609 A0,0 0 0 0 909.3922,209.9609 L909.3922,134.2969 L899.3922,124.2969 L698.61,124.2969 A0,0 0 0 0 698.61,124.2969" fill="#FEFFDD" style="stroke:#181818;stroke-width:0.5;"/><path d="M899.3922,124.2969 L899.3922,134.2969 L909.3922,134.2969 L899.3922,124.2969" fill="#FEFFDD" style="stroke:#181818;stroke-width:0.5;"/><text fill="#000000" font-family="sans-serif" font-size="13" lengthAdjust="spacing" textLength="165.5659" x="704.61" y="141.3638">Loopback paths reset the</text><text fill="#000000" font-family="sans-serif" font-size="13" lengthAdjust="spacing" textLength="165.166" x="704.61" y="156.4966">targeted phase's tasks to</text><text fill="#000000" font-family="sans-serif" font-size="13" lengthAdjust="spacing" textLength="162.6396" x="704.61" y="171.6294">PENDING; learnings from</text><text fill="#000000" font-family="sans-serif" font-size="13" lengthAdjust="spacing" textLength="135.1035" x="704.61" y="186.7622">failed postconditions</text><text fill="#000000" font-family="sans-serif" font-size="13" lengthAdjust="spacing" textLength="189.7822" x="704.61" y="201.895">carry into the retry's prompt.</text></g><!--link *start* to INIT--><g class="link" data-entity-1="ent0002" data-entity-2="ent0003" data-link-type="dependency" data-source-line="10" id="lnk4"><path d="M35,63.4469 C35,80.4469 35,111.4269 35,136.0469" fill="none" id="*start*-to-INIT" style="stroke:#444444;stroke-width:1;"/><polygon fill="#444444" points="35,142.0469,39,133.0469,35,137.0469,31,133.0469,35,142.0469" style="stroke:#444444;stroke-width:1;"/></g><!--link INIT to ANALYSIS--><g class="link" data-entity-1="ent0003" data-entity-2="ent0005" data-link-type="dependency" data-source-line="12" id="lnk6"><path d="M35.56,192.4169 C37.27,215.1669 42.96,249.0269 61,271.9569 C75.79,290.7569 93.4128,301.4402 114.0328,309.9402" fill="none" id="INIT-to-ANALYSIS" style="stroke:#444444;stroke-width:1;"/><polygon fill="#444444" points="119.58,312.2269,112.7837,305.0988,114.9574,310.3213,109.7348,312.495,119.58,312.2269" style="stroke:#444444;stroke-width:1;"/><text fill="#000000" font-family="sans-serif" font-size="13" lengthAdjust="spacing" textLength="127.8735" x="62" y="253.0238">project spec loaded</text><text fill="#000000" font-family="sans-serif" font-size="13" lengthAdjust="spacing" textLength="106.5708" x="72.6514" y="268.1566">agents spawned</text></g><!--link ANALYSIS to ARCHITECTURE--><g class="link" data-entity-1="ent0005" data-entity-2="ent0007" data-link-type="dependency" data-source-line="13" id="lnk8"><path d="M172.65,352.1669 C181.7,374.8669 197.71,408.7269 220,431.9569 C231.06,443.4869 239.949,450.3838 253.679,458.4638" fill="none" id="ANALYSIS-to-ARCHITECTURE" style="stroke:#444444;stroke-width:1;"/><polygon fill="#444444" points="258.85,461.5069,253.1222,453.4949,254.5408,458.971,249.0647,460.3896,258.85,461.5069" style="stroke:#444444;stroke-width:1;"/><text fill="#000000" font-family="sans-serif" font-size="13" lengthAdjust="spacing" textLength="150.2427" x="221" y="404.0238">requirements analyzed</text><text fill="#000000" font-family="sans-serif" font-size="13" lengthAdjust="spacing" textLength="121.5132" x="235.3647" y="419.1566">tasks decomposed</text></g><!--link ARCHITECTURE to IMPLEMENTATION--><g class="link" data-entity-1="ent0007" data-entity-2="ent0009" data-link-type="dependency" data-source-line="14" id="lnk10"><path d="M321.08,512.0669 C330.34,531.4269 345.84,557.9269 367,573.9569 C395.97,595.8969 428.181,607.6462 461.211,615.4562" fill="none" id="ARCHITECTURE-to-IMPLEMENTATION" style="stroke:#444444;stroke-width:1;"/><polygon fill="#444444" points="467.05,616.8369,459.2119,610.8733,462.1842,615.6863,457.3711,618.6586,467.05,616.8369" style="stroke:#444444;stroke-width:1;"/><text fill="#000000" font-family="sans-serif" font-size="13" lengthAdjust="spacing" textLength="145.0757" x="368" y="555.0238">architecture approved</text><text fill="#000000" font-family="sans-serif" font-size="13" lengthAdjust="spacing" textLength="113.8262" x="383.6248" y="570.1566">contracts defined</text></g><!--link IMPLEMENTATION to TESTING--><g class="link" data-entity-1="ent0009" data-entity-2="ent0011" data-link-type="dependency" data-source-line="15" id="lnk12"><path d="M467.48,640.2269 C420.72,650.1069 372.64,668.4869 396,700.9569 C423.29,738.8869 472.5235,750.0167 510.6235,753.3967" fill="none" id="IMPLEMENTATION-to-TESTING" style="stroke:#444444;stroke-width:1;"/><polygon fill="#444444" points="516.6,753.9269,507.9887,749.1472,511.6196,753.485,507.2817,757.1159,516.6,753.9269" style="stroke:#444444;stroke-width:1;"/><text fill="#000000" font-family="sans-serif" font-size="13" lengthAdjust="spacing" textLength="150.5854" x="397" y="697.0238">all impl tasks complete</text></g><!--link TESTING to IMPLEMENTATION--><g class="link" data-entity-1="ent0011" data-entity-2="ent0009" data-link-type="dependency" data-source-line="21" id="lnk16"><path d="M556.18,730.5469 C555.49,716.8069 554.24,699.3669 552,683.9569 C550.58,674.1669 549.7038,669.3622 547.5638,660.1222" fill="none" id="TESTING-to-IMPLEMENTATION" style="stroke:#0000FF;stroke-width:1;"/><polygon fill="#0000FF" points="546.21,654.2769,544.3438,663.9473,547.3381,659.1479,552.1375,662.1423,546.21,654.2769" style="stroke:#0000FF;stroke-width:1;"/><text fill="#000000" font-family="sans-serif" font-size="13" lengthAdjust="spacing" textLength="55.6372" x="554.89" y="697.0238">tests fail</text></g><!--link TESTING to REVIEW--><g class="link" data-entity-1="ent0011" data-entity-2="ent0013" data-link-type="dependency" data-source-line="16" id="lnk14"><path d="M597.32,742.1669 C643.25,724.7769 712,688.8969 712,629.9569 C712,325.9569 712,325.9569 712,325.9569 C712,273.3769 678.6817,226.1605 653.2117,196.9305" fill="none" id="TESTING-to-REVIEW" style="stroke:#444444;stroke-width:1;"/><polygon fill="#444444" points="649.27,192.4069,652.1668,201.8201,652.5548,196.1765,658.1983,196.5645,649.27,192.4069" style="stroke:#444444;stroke-width:1;"/><text fill="#000000" font-family="sans-serif" font-size="13" lengthAdjust="spacing" textLength="65.6348" x="758.1255" y="484.0238">tests pass</text><text fill="#000000" font-family="sans-serif" font-size="13" lengthAdjust="spacing" textLength="155.8857" x="713" y="499.1566">coverage threshold met</text></g><!--link REVIEW to DONE--><g class="link" data-entity-1="ent0013" data-entity-2="ent0002" data-link-type="dependency" data-source-line="18" id="lnk15"><path d="M656.19,192.5069 C664.08,198.4769 672.7,204.6669 681,209.9569 C705.14,225.3369 715.39,222.3969 738,239.9569 C792.92,282.5969 840.7758,341.9626 866.7658,376.7026" fill="none" id="REVIEW-to-DONE" style="stroke:#444444;stroke-width:1;"/><polygon fill="#444444" points="870.36,381.5069,868.1715,371.9042,867.3648,377.5033,861.7658,376.6966,870.36,381.5069" style="stroke:#444444;stroke-width:1;"/><text fill="#000000" font-family="sans-serif" font-size="13" lengthAdjust="spacing" textLength="114.6133" x="775.25" y="253.0238">human / reviewer</text><text fill="#000000" font-family="sans-serif" font-size="13" lengthAdjust="spacing" textLength="60.2329" x="802.4402" y="268.1566">approves</text></g><!--link REVIEW to ANALYSIS--><g class="link" data-entity-1="ent0013" data-entity-2="ent0005" data-link-type="dependency" data-source-line="22" id="lnk17"><path d="M588.29,171.4869 C501.45,179.7869 290.17,203.2469 230,239.9569 C205.9,254.6569 190.3296,276.4319 179.1296,296.2719" fill="none" id="REVIEW-to-ANALYSIS" style="stroke:#0000FF;stroke-width:1;"/><polygon fill="#0000FF" points="176.18,301.4969,184.0876,295.6258,178.638,297.1428,177.1211,291.6931,176.18,301.4969" style="stroke:#0000FF;stroke-width:1;"/><text fill="#000000" font-family="sans-serif" font-size="13" lengthAdjust="spacing" textLength="41.5771" x="280.3308" y="253.0238">reject:</text><text fill="#000000" font-family="sans-serif" font-size="13" lengthAdjust="spacing" textLength="140.2388" x="231" y="268.1566">requirements unclear</text></g><!--link REVIEW to ARCHITECTURE--><g class="link" data-entity-1="ent0013" data-entity-2="ent0007" data-link-type="dependency" data-source-line="23" id="lnk18"><path d="M588.18,191.8769 C566.36,205.7069 538.48,223.5869 514,239.9569 C473.93,266.7569 454.61,263.9169 425,301.9569 C387.07,350.6869 411.83,381.6669 376,431.9569 C368.08,443.0669 362.0113,449.4713 351.5413,457.9113" fill="none" id="REVIEW-to-ARCHITECTURE" style="stroke:#0000FF;stroke-width:1;"/><polygon fill="#0000FF" points="346.87,461.6769,356.3872,459.1427,350.7627,458.5389,351.3665,452.9144,346.87,461.6769" style="stroke:#0000FF;stroke-width:1;"/><text fill="#000000" font-family="sans-serif" font-size="13" lengthAdjust="spacing" textLength="41.5771" x="448.9246" y="324.0238">reject:</text><text fill="#000000" font-family="sans-serif" font-size="13" lengthAdjust="spacing" textLength="87.4263" x="426" y="339.1566">design issues</text></g><!--link REVIEW to IMPLEMENTATION--><g class="link" data-entity-1="ent0013" data-entity-2="ent0009" data-link-type="dependency" data-source-line="24" id="lnk19"><path d="M612.11,192.4469 C590.92,231.1069 551.46,309.5969 537,381.9569 C521.06,461.7469 529.7149,553.0585 535.5949,597.6085" fill="none" id="REVIEW-to-IMPLEMENTATION" style="stroke:#0000FF;stroke-width:1;"/><polygon fill="#0000FF" points="536.38,603.5569,539.1679,594.1109,535.7257,598.5999,531.2367,595.1577,536.38,603.5569" style="stroke:#0000FF;stroke-width:1;"/><text fill="#000000" font-family="sans-serif" font-size="13" lengthAdjust="spacing" textLength="41.5771" x="590.8633" y="404.0238">reject:</text><text fill="#000000" font-family="sans-serif" font-size="13" lengthAdjust="spacing" textLength="147.3037" x="538" y="419.1566">implementation issues</text></g><!--link INIT to FAILED--><g class="link" data-entity-1="ent0003" data-entity-2="ent0003" data-link-type="dependency" data-source-line="27" id="lnk20"><path d="M27.68,192.4769 C19.09,223.2669 6,278.0369 6,325.9569 C6,325.9569 6,325.9569 6,756.9569 C6,862.4069 391.2214,878.7687 511.9514,881.3487" fill="none" id="INIT-to-FAILED" style="stroke:#FF0000;stroke-width:1;"/><polygon fill="#FF0000" points="517.95,881.4769,509.0375,877.2855,512.9511,881.37,508.8666,885.2837,517.95,881.4769" style="stroke:#FF0000;stroke-width:1;"/><text fill="#000000" font-family="sans-serif" font-size="13" lengthAdjust="spacing" textLength="93.7866" x="7" y="562.5238">unrecoverable</text></g><!--link ANALYSIS to FAILED--><g class="link" data-entity-1="ent0005" data-entity-2="ent0003" data-link-type="dependency" data-source-line="28" id="lnk21"><path d="M153.8,352.3769 C141.95,383.0069 124,437.4269 124,485.9569 C124,485.9569 124,485.9569 124,756.9569 C124,838.8969 410.1513,870.2223 512.2813,878.8423" fill="none" id="ANALYSIS-to-FAILED" style="stroke:#FF0000;stroke-width:1;"/><polygon fill="#FF0000" points="518.26,879.3469,509.6283,874.6041,513.2777,878.9264,508.9555,882.5758,518.26,879.3469" style="stroke:#FF0000;stroke-width:1;"/><text fill="#000000" font-family="sans-serif" font-size="13" lengthAdjust="spacing" textLength="93.7866" x="125" y="633.5238">unrecoverable</text></g><!--link ARCHITECTURE to FAILED--><g class="link" data-entity-1="ent0007" data-entity-2="ent0003" data-link-type="dependency" data-source-line="29" id="lnk22"><path d="M299.76,512.2969 C282.41,553.6869 254.37,639.2869 287,700.9569 C336.37,794.2669 452.1937,846.3996 512.3837,868.3696" fill="none" id="ARCHITECTURE-to-FAILED" style="stroke:#FF0000;stroke-width:1;"/><polygon fill="#FF0000" points="518.02,870.4269,510.9371,863.5834,513.3231,868.7125,508.1941,871.0984,518.02,870.4269" style="stroke:#FF0000;stroke-width:1;"/><text fill="#000000" font-family="sans-serif" font-size="13" lengthAdjust="spacing" textLength="93.7866" x="288" y="697.0238">unrecoverable</text></g><!--link IMPLEMENTATION to FAILED--><g class="link" data-entity-1="ent0009" data-entity-2="ent0003" data-link-type="dependency" data-source-line="30" id="lnk23"><path d="M587.55,654.1869 C599.35,662.2169 610.91,672.1769 619,683.9569 C651.82,731.7769 642.29,753.3469 649,810.9569 C649.87,818.4569 652.81,821.4369 649,827.9569 C635.87,850.4069 615.2278,862.1665 593.4778,870.2065" fill="none" id="IMPLEMENTATION-to-FAILED" style="stroke:#FF0000;stroke-width:1;"/><polygon fill="#FF0000" points="587.85,872.2869,597.6786,872.9182,592.5398,870.5533,594.9048,865.4145,587.85,872.2869" style="stroke:#FF0000;stroke-width:1;"/><text fill="#000000" font-family="sans-serif" font-size="13" lengthAdjust="spacing" textLength="93.7866" x="647.45" y="760.5238">unrecoverable</text></g><!--link TESTING to FAILED--><g class="link" data-entity-1="ent0011" data-entity-2="ent0003" data-link-type="dependency" data-source-line="31" id="lnk24"><path d="M553.16,781.3569 C551.88,790.5969 550.63,801.2369 550,810.9569 C549,826.4669 549.2825,837.9221 550.2625,851.6421" fill="none" id="TESTING-to-FAILED" style="stroke:#FF0000;stroke-width:1;"/><polygon fill="#FF0000" points="550.69,857.6269,554.0386,848.3648,550.3338,852.6396,546.0589,848.9347,550.69,857.6269" style="stroke:#FF0000;stroke-width:1;"/><text fill="#000000" font-family="sans-serif" font-size="13" lengthAdjust="spacing" textLength="93.7866" x="551" y="824.0238">unrecoverable</text></g><!--link REVIEW to FAILED--><g class="link" data-entity-1="ent0013" data-entity-2="ent0003" data-link-type="dependency" data-source-line="32" id="lnk25"><path d="M652.25,192.4169 C660.84,199.1269 670.81,205.7269 681,209.9569 C817.62,266.7269 993,178.0169 993,325.9569 C993,325.9569 993,325.9569 993,756.9569 C993,841.0369 697.9422,871.0853 593.8722,879.1153" fill="none" id="REVIEW-to-FAILED" style="stroke:#FF0000;stroke-width:1;"/><polygon fill="#FF0000" points="587.89,879.5769,597.1711,882.8726,592.8752,879.1922,596.5556,874.8964,587.89,879.5769" style="stroke:#FF0000;stroke-width:1;"/><text fill="#000000" font-family="sans-serif" font-size="13" lengthAdjust="spacing" textLength="93.7866" x="994" y="562.5238">unrecoverable</text></g><!--link DONE to *end*--><g class="link" data-entity-1="ent0002" data-entity-2="ent0026" data-link-type="dependency" data-source-line="36" id="lnk27"><path d="M897.11,432.3469 C907.18,461.5469 922,512.1169 922,556.9569 C922,556.9569 922,556.9569 922,883.9569 C922,962.4869 794.4498,975.798 754.2798,978.138" fill="none" id="DONE-to-*end*" style="stroke:#444444;stroke-width:1;"/><polygon fill="#444444" points="748.29,978.4869,757.5074,981.9567,753.2815,978.1961,757.0422,973.9703,748.29,978.4869" style="stroke:#444444;stroke-width:1;"/></g><!--link FAILED to *end*--><g class="link" data-entity-1="ent0003" data-entity-2="ent0026" data-link-type="dependency" data-source-line="37" id="lnk28"><path d="M588.04,902.0469 C631.21,924.3369 696.629,958.1136 722.129,971.2836" fill="none" id="FAILED-to-*end*" style="stroke:#444444;stroke-width:1;"/><polygon fill="#444444" points="727.46,974.0369,721.2991,966.3529,723.0175,971.7425,717.628,973.4609,727.46,974.0369" style="stroke:#444444;stroke-width:1;"/></g><?plantuml-src XLHDRzim3BthLn38eTk0R9ViqXK5qjHP3IHkq7WRXhO7rMPYBRBaINIARDX_7sKx7ss3DeS05jzx9CL7aIADC7Fs5sO4iq9wX3b9GfZAh506XV0hPIhfP0c-2VmL01SoMosThKq-ijgwipD2LoeZzVavzCRZQ73n-HXg8PN6lCMC-CUOeNFsiGb3Rp0OyCdO6afaYN25UesaCYd-2N7xuHxw_NE8apWL8lmtdyDaEFavZ-Tm2bNNXAym0srbZlcTaKiqvFbCFXhCnGxUS6z6Lt4QZT9lDn7p7VwkbSEo8KZkPVCdA93qAmyvPhQih0yQXxIcfEbi4asZ91scyNN2IjBnrH7NKZi4MN5Xww2KSMDEPXJK5YgKyumPnD9ediR9rw2YDQYoqj1M4F9h91HRH43VHD_Zw0U32JthLjBxa6UDZXi7AXpwmkeSIYGXEd3WNLudeUMYBgM1JzpwMk4ZEhwljbeln0dVeQqUU8GiIuNVvxtjFUWQxuzrtfOHnhpBjaSVpCfX6DNfdNbowRN9D4ftZFfyL1qzHw-M1fJtDTVyalUYm1qpt6oJLfAoEmNkUklalZNzq4YOuJjfDc3uO1k4AcpA-yw7jps7UKWt7iQJw9BJrDnOEuO7ZGUkUnFvn5jleP_RvotymGHV1-ulydMSQ5-4nas7Rq1tth7sUoyQP30WhxFemjjFOInpd5eM17RHMPlVWyaJ6_84FH9R6pb4qYrv9V9s72U-MnMo79j5oIKt-mM2fOmoI_QbioL7scg0jvbu9NCL3E3vF9FERK0Pia6U4v7Ri2OlH5dHHu4cXr3YVm00?></g></svg>