<?plantuml 1.2026.2?><svg xmlns="http://www.w3.org/2000/svg" xmlns:xlink="http://www.w3.org/1999/xlink" contentStyleType="text/css" data-diagram-type="STATE" height="702px" preserveAspectRatio="none" style="width:1113px;height:702px;background:#FFFFFF;" version="1.1" viewBox="0 0 1113 702" width="1113px" zoomAndPan="magnify"><title>Task Status State Machine</title><defs/><g><g class="title" data-source-line="1"><text fill="#000000" font-family="sans-serif" font-size="14" font-weight="bold" lengthAdjust="spacing" textLength="210.793" x="444.1369" y="22.9951">Task Status State Machine</text></g><g class="entity" data-qualified-name="DONE" id="ent0002"><rect fill="#FFE4B5" height="50" rx="12.5" ry="12.5" style="stroke:#181818;stroke-width:0.5;" width="61.1182" x="7" y="220.9569"/><line style="stroke:#181818;stroke-width:0.5;" x1="7" x2="68.1182" y1="247.2537" y2="247.2537"/><text fill="#000000" font-family="Helvetica" font-size="14" lengthAdjust="spacing" textLength="41.1182" x="17" y="238.952">DONE</text></g><g class="entity" data-qualified-name="FAILED" id="ent0003"><rect fill="#FFCCCC" height="50" rx="12.5" ry="12.5" style="stroke:#181818;stroke-width:0.5;" width="69.1846" x="383.97" y="220.9569"/><line style="stroke:#181818;stroke-width:0.5;" x1="383.97" x2="453.1546" y1="247.2537" y2="247.2537"/><text fill="#000000" font-family="Helvetica" font-size="14" lengthAdjust="spacing" textLength="49.1846" x="393.97" y="238.952">FAILED</text></g><g class="start_entity" data-qualified-name=".start." data-source-line="10" id="ent0002"><ellipse cx="113.56" cy="245.9569" fill="#222222" rx="10" ry="10" style="stroke:#222222;stroke-width:1;"/></g><g class="entity" data-qualified-name="PENDING" id="ent0003"><rect fill="#F1F1F1" height="50" rx="12.5" ry="12.5" style="stroke:#181818;stroke-width:0.5;" width="83.9912" x="129.56" y="362.9569"/><line style="stroke:#181818;stroke-width:0.5;" x1="129.56" x2="213.5512" y1="389.2537" y2="389.2537"/><text fill="#000000" font-family="Helvetica" font-size="14" lengthAdjust="spacing" textLength="63.9912" x="139.56" y="380.952">PENDING</text></g><g class="entity" data-qualified-name="ASSIGNED" id="ent0005"><rect fill="#F1F1F1" height="50" rx="12.5" ry="12.5" style="stroke:#181818;stroke-width:0.5;" width="92.4268" x="306.35" y="504.9569"/><line style="stroke:#181818;stroke-width:0.5;" x1="306.35" x2="398.7768" y1="531.2538" y2="531.2538"/><text fill="#000000" font-family="Helvetica" font-size="14" lengthAdjust="spacing" textLength="72.4268" x="316.35" y="522.952">ASSIGNED</text></g><g class="entity" data-qualified-name="RUNNING" id="ent0007"><rect fill="#F1F1F1" height="50" rx="12.5" ry="12.5" style="stroke:#181818;stroke-width:0.5;" width="86.3701" x="609.37" y="646.9569"/><line style="stroke:#181818;stroke-width:0.5;" x1="609.37" x2="695.7401" y1="673.2538" y2="673.2538"/><text fill="#000000" font-family="Helvetica" font-size="14" lengthAdjust="spacing" textLength="66.3701" x="619.37" y="664.952">RUNNING</text></g><g class="entity" data-qualified-name="REVIEW" id="ent0009"><rect fill="#F1F1F1" height="50" rx="12.5" ry="12.5" style="stroke:#181818;stroke-width:0.5;" width="74.9678" x="604.08" y="61.1269"/><line style="stroke:#181818;stroke-width:0.5;" x1="604.08" x2="679.0478" y1="87.4237" y2="87.4237"/><text fill="#000000" font-family="Helvetica" font-size="14" lengthAdjust="spacing" textLength="54.9678" x="614.08" y="79.122">REVIEW</text></g><g class="end_entity" data-qualified-name=".end." data-source-line="30" id="ent0019"><ellipse cx="37.56" cy="387.9569" fill="none" rx="11" ry="11" style="stroke:#222222;stroke-width:1;"/><ellipse cx="37.56" cy="387.9569" fill="#222222" rx="6" ry="6" style="stroke:#222222;stroke-width:1;"/></g><g class="entity" data-qualified-name="GMN2" data-source-line="33" id="ent0003"><path d="M713.74,43.2969 L713.74,82.1269 L679.24,86.1269 L713.74,90.1269 L713.74,128.9609 A0,0 0 0 0 713.74,128.9609 L951.3792,128.9609 A0,0 0 0 0 951.3792,128.9609 L951.3792,53.2969 L941.3792,43.2969 L713.74,43.2969 A0,0 0 0 0 713.74,43.2969" fill="#FEFFDD" style="stroke:#181818;stroke-width:0.5;"/><path d="M941.3792,43.2969 L941.3792,53.2969 L951.3792,53.2969 L941.3792,43.2969" fill="#FEFFDD" style="stroke:#181818;stroke-width:0.5;"/><text fill="#000000" font-family="sans-serif" font-size="13" lengthAdjust="spacing" textLength="209.0474" x="719.74" y="60.3638">``success`` is determined here:</text><text fill="#000000" font-family="sans-serif" font-size="13" lengthAdjust="spacing" textLength="216.6392" x="719.74" y="75.4966">every Specification.postcondition</text><text fill="#000000" font-family="sans-serif" font-size="13" lengthAdjust="spacing" textLength="199.7544" x="719.74" y="90.6294">must evaluate True. The LLM's</text><text fill="#000000" font-family="sans-serif" font-size="13" lengthAdjust="spacing" textLength="206.1084" x="719.74" y="105.7622">mark_complete call is observed</text><text fill="#000000" font-family="sans-serif" font-size="13" lengthAdjust="spacing" textLength="206.3496" x="719.74" y="120.895">but does not gate the outcome.</text></g><!--link *start* to PENDING--><g class="link" data-entity-1="ent0002" data-entity-2="ent0003" data-link-type="dependency" data-source-line="10" id="lnk4"><path d="M114.89,256.3369 C117.43,272.5169 123.77,306.4969 135.56,332.9569 C140.15,343.2469 143.221,348.8063 149.441,357.7763" fill="none" id="*start*-to-PENDING" style="stroke:#444444;stroke-width:1;"/><polygon fill="#444444" points="152.86,362.7069,151.0186,353.0317,150.0109,358.5981,144.4445,357.5903,152.86,362.7069" style="stroke:#444444;stroke-width:1;"/></g><!--link PENDING to ASSIGNED--><g class="link" data-entity-1="ent0003" data-entity-2="ent0005" data-link-type="dependency" data-source-line="12" id="lnk6"><path d="M148.23,413.3569 C133.65,431.6169 120.14,456.5269 134.56,474.9569 C155.46,501.6769 242.705,516.2834 300.265,523.3734" fill="none" id="PENDING-to-ASSIGNED" style="stroke:#444444;stroke-width:1;"/><polygon fill="#444444" points="306.22,524.1069,297.7765,519.0366,301.2575,523.4956,296.7985,526.9766,306.22,524.1069" style="stroke:#444444;stroke-width:1;"/><text fill="#000000" font-family="sans-serif" font-size="13" lengthAdjust="spacing" textLength="106.1265" x="135.56" y="456.0238">dispatcher picks</text><text fill="#000000" font-family="sans-serif" font-size="13" lengthAdjust="spacing" textLength="57.8906" x="159.6779" y="471.1566">an agent</text></g><!--link ASSIGNED to PENDING--><g class="link" data-entity-1="ent0005" data-entity-2="ent0003" data-link-type="dependency" data-source-line="23" id="lnk17"><path d="M320.13,504.6869 C308.18,495.5469 294.61,484.9469 282.56,474.9569 C266.07,461.2969 263.27,456.3369 246.56,442.9569 C233.91,432.8269 224.4584,425.7659 211.7284,416.7059" fill="none" id="ASSIGNED-to-PENDING" style="stroke:#0000FF;stroke-width:1;"/><polygon fill="#0000FF" points="206.84,413.2269,211.8532,421.7044,210.9136,416.1261,216.4919,415.1866,206.84,413.2269" style="stroke:#0000FF;stroke-width:1;"/><text fill="#000000" font-family="sans-serif" font-size="13" lengthAdjust="spacing" textLength="108.856" x="283.56" y="456.0238">control aborted /</text><text fill="#000000" font-family="sans-serif" font-size="13" lengthAdjust="spacing" textLength="88.9561" x="293.51" y="471.1566">reassignment</text></g><!--link ASSIGNED to RUNNING--><g class="link" data-entity-1="ent0005" data-entity-2="ent0007" data-link-type="dependency" data-source-line="13" id="lnk8"><path d="M374.29,555.1169 C392.99,574.5069 421.61,601.0269 451.56,616.9569 C501.96,643.7669 560.7911,657.0734 602.9811,664.0834" fill="none" id="ASSIGNED-to-RUNNING" style="stroke:#444444;stroke-width:1;"/><polygon fill="#444444" points="608.9,665.0669,600.6773,659.6458,603.9676,664.2473,599.3661,667.5376,608.9,665.0669" style="stroke:#444444;stroke-width:1;"/><text fill="#000000" font-family="sans-serif" font-size="13" lengthAdjust="spacing" textLength="92.3774" x="460.8786" y="598.0238">runtime starts</text><text fill="#000000" font-family="sans-serif" font-size="13" lengthAdjust="spacing" textLength="109.0146" x="452.56" y="613.1566">the tool-call loop</text></g><!--link RUNNING to REVIEW--><g class="link" data-entity-1="ent0007" data-entity-2="ent0009" data-link-type="dependency" data-source-line="14" id="lnk10"><path d="M696.12,669.3969 C777.3,663.9169 943.56,639.4369 943.56,530.9569 C943.56,244.9569 943.56,244.9569 943.56,244.9569 C943.56,123.6769 800.29,191.7969 696.56,128.9569 C688.04,123.7969 684.0519,121.2108 676.0819,115.1708" fill="none" id="RUNNING-to-REVIEW" style="stroke:#444444;stroke-width:1;"/><polygon fill="#444444" points="671.3,111.5469,676.0569,120.1708,675.285,114.5668,680.8889,113.7948,671.3,111.5469" style="stroke:#444444;stroke-width:1;"/><text fill="#000000" font-family="sans-serif" font-size="13" lengthAdjust="spacing" textLength="91.5078" x="979.0595" y="385.0238">agent finishes</text><text fill="#000000" font-family="sans-serif" font-size="13" lengthAdjust="spacing" textLength="160.5068" x="944.56" y="400.1566">(mark_complete or stop)</text></g><!--link REVIEW to RUNNING--><g class="link" data-entity-1="ent0009" data-entity-2="ent0007" data-link-type="dependency" data-source-line="22" id="lnk16"><path d="M661.46,111.3969 C683.68,141.0169 716.56,193.5369 716.56,244.9569 C716.56,244.9569 716.56,244.9569 716.56,530.9569 C716.56,574.7869 693.7469,615.0128 674.8769,641.7828" fill="none" id="REVIEW-to-RUNNING" style="stroke:#0000FF;stroke-width:1;"/><polygon fill="#0000FF" points="671.42,646.6869,679.8747,641.6353,674.3007,642.6001,673.3359,637.0262,671.42,646.6869" style="stroke:#0000FF;stroke-width:1;"/><text fill="#000000" font-family="sans-serif" font-size="13" lengthAdjust="spacing" textLength="125.3281" x="732.7626" y="385.0238">in-phase auto-retry</text><text fill="#000000" font-family="sans-serif" font-size="13" lengthAdjust="spacing" textLength="155.7334" x="717.56" y="400.1566">(loopback within phase)</text></g><!--link REVIEW to DONE--><g class="link" data-entity-1="ent0009" data-entity-2="ent0002" data-link-type="dependency" data-source-line="15" id="lnk11"><path d="M603.61,93.1869 C512.39,108.4069 274.43,152.0269 85.56,220.9569 C79.96,222.9969 79.582,222.9575 74.032,225.5875" fill="none" id="REVIEW-to-DONE" style="stroke:#444444;stroke-width:1;"/><polygon fill="#444444" points="68.61,228.1569,78.4559,227.9175,73.1284,226.0157,75.0301,220.6882,68.61,228.1569" style="stroke:#444444;stroke-width:1;"/><text fill="#000000" font-family="sans-serif" font-size="13" lengthAdjust="spacing" textLength="129.0415" x="281.75" y="172.0238">every postcondition</text><text fill="#000000" font-family="sans-serif" font-size="13" lengthAdjust="spacing" textLength="96.9985" x="297.7715" y="187.1566">evaluates True</text></g><!--link PENDING to FAILED--><g class="link" data-entity-1="ent0003" data-entity-2="ent0003" data-link-type="dependency" data-source-line="18" id="lnk12"><path d="M162.89,362.7569 C157.8,343.8669 154.77,318.0469 168.56,300.9569 C195.19,267.9569 315.2684,254.6065 377.5584,249.7165" fill="none" id="PENDING-to-FAILED" style="stroke:#FF0000;stroke-width:1;"/><polygon fill="#FF0000" points="383.54,249.2469,374.2546,245.9635,378.5553,249.6382,374.8807,253.939,383.54,249.2469" style="stroke:#FF0000;stroke-width:1;"/><text fill="#000000" font-family="sans-serif" font-size="13" lengthAdjust="spacing" textLength="78.5205" x="169.56" y="314.0238">prerequisite</text><text fill="#000000" font-family="sans-serif" font-size="13" lengthAdjust="spacing" textLength="67.5137" x="175.0634" y="329.1566">task failed</text></g><!--link FAILED to PENDING--><g class="link" data-entity-1="ent0003" data-entity-2="ent0003" data-link-type="dependency" data-source-line="26" id="lnk18"><path d="M383.64,257.8969 C356.56,267.2069 318.68,282.0669 288.56,300.9569 C270.42,312.3269 269.51,319.8769 252.56,332.9569 C239.31,343.1769 229.2161,350.2846 215.6561,359.1846" fill="none" id="FAILED-to-PENDING" style="stroke:#0000FF;stroke-width:1;"/><polygon fill="#0000FF" points="210.64,362.4769,220.359,360.8825,214.8201,359.7333,215.9693,354.1944,210.64,362.4769" style="stroke:#0000FF;stroke-width:1;"/><text fill="#000000" font-family="sans-serif" font-size="13" lengthAdjust="spacing" textLength="102.0259" x="289.56" y="314.0238">phase loopback</text><text fill="#000000" font-family="sans-serif" font-size="13" lengthAdjust="spacing" textLength="96.9478" x="292.0991" y="329.1566">resets the task</text></g><!--link ASSIGNED to FAILED--><g class="link" data-entity-1="ent0005" data-entity-2="ent0003" data-link-type="dependency" data-source-line="19" id="lnk13"><path d="M377.47,504.6269 C384.86,495.9769 392.15,485.6969 396.56,474.9569 C425.13,405.4369 423.9017,320.2841 421.0917,277.3341" fill="none" id="ASSIGNED-to-FAILED" style="stroke:#FF0000;stroke-width:1;"/><polygon fill="#FF0000" points="420.7,271.3469,417.2961,280.5888,421.0264,276.3362,425.279,280.0665,420.7,271.3469" style="stroke:#FF0000;stroke-width:1;"/><text fill="#000000" font-family="sans-serif" font-size="13" lengthAdjust="spacing" textLength="115.7622" x="421.34" y="392.5238">assignment failed</text></g><!--link RUNNING to FAILED--><g class="link" data-entity-1="ent0007" data-entity-2="ent0003" data-link-type="dependency" data-source-line="20" id="lnk14"><path d="M644.27,646.5869 C619.86,574.8669 549.67,369.1969 545.56,362.9569 C521,325.6769 486.611,295.9755 458.261,274.7255" fill="none" id="RUNNING-to-FAILED" style="stroke:#FF0000;stroke-width:1;"/><polygon fill="#FF0000" points="453.46,271.1269,458.2624,279.7255,457.4608,274.1257,463.0606,273.3242,453.46,271.1269" style="stroke:#FF0000;stroke-width:1;"/><text fill="#000000" font-family="sans-serif" font-size="13" lengthAdjust="spacing" textLength="103.4985" x="586.38" y="463.5238">iteration cap hit</text></g><!--link REVIEW to FAILED--><g class="link" data-entity-1="ent0009" data-entity-2="ent0003" data-link-type="dependency" data-source-line="21" id="lnk15"><path d="M607.2,111.4369 C565.3,141.0969 499.7778,187.4811 457.8478,217.1511" fill="none" id="REVIEW-to-FAILED" style="stroke:#FF0000;stroke-width:1;"/><polygon fill="#FF0000" points="452.95,220.6169,462.6072,218.6835,457.0315,217.7288,457.9862,212.1531,452.95,220.6169" style="stroke:#FF0000;stroke-width:1;"/><text fill="#000000" font-family="sans-serif" font-size="13" lengthAdjust="spacing" textLength="100.2803" x="537.75" y="172.0238">a postcondition</text><text fill="#000000" font-family="sans-serif" font-size="13" lengthAdjust="spacing" textLength="36.0166" x="569.8818" y="187.1566">failed</text></g><!--link DONE to *end*--><g class="link" data-entity-1="ent0002" data-entity-2="ent0019" data-link-type="dependency" data-source-line="30" id="lnk20"><path d="M37.56,271.3469 C37.56,302.3669 37.56,348.5569 37.56,370.6169" fill="none" id="DONE-to-*end*" style="stroke:#444444;stroke-width:1;"/><polygon fill="#444444" points="37.56,376.6169,41.56,367.6169,37.56,371.6169,33.56,367.6169,37.56,376.6169" style="stroke:#444444;stroke-width:1;"/></g><?plantuml-src RLF1RXen5BpxAvx48Kqbw8LUK8H40gH8P5iLsXv2LCpkWxNmsblxcIYA-kzzDWk11YwBx9dnc_6O56c4kVHRc96auDC7uK7cfJ8eXDygKqidA_1furK0tCfykt4scEBEQkjkRWXTfOpK_JwqnkDHz_Rp9THQAXqSxa5t_6FGm3dxdFQXrUrsUMLi3MMoGlY2UeUaSYd-2l7uyGdQxJvy6sN3INOlHFCdBGvciybzDXf23mhbQqbvYGvgbM_zmaW3SeE6n14LATz_P5cazy05GugFOtkE64yb0bchsxdK6hIrjJY04t7qSpBwnRma2cjbb2-HUHygwRQ_SrlL6ZadDkJ9rjUY8KJky6isOYRkqBr0RJtbrXIAb3KBWpkf0mViOUu2vtu5JLp0Vah_vlUnvR1uOhNnO39Ddck73ly4vHKXpn_lCdAnEB7ydYMzLnjJ9HDxzD7cUp0hEna7XLpMK2ewsheW_B-rW_oHiT81dyukGPbsNKgF80FPjaDoBvne37_5BO9dHTn6I93hCrS7gKCyFU23oLaDScKTOG6V5iRXczcORD9FkOfcwejA-uaEGqGPZ-GX5OH3vhUHNaIwrTCtqAmtqYUz5maQcy1r5i9OHZcrAGdikYaMFu3bqeSyH--NIr0U2jmhinLkDVOOiI_GhCPShVbzn9GxPvapfWgUu52grAaEp7dowVJXoiVzixQchlDXTkNHxVYo05Q1eB3SHnuJDb4a6hU1Jwcm8z0KSGV_0G00?></g></svg>